<svg width="100" height="101" viewBox="0 0 100 101" fill="none" xmlns="http://www.w3.org/2000/svg">
<path d="M50 88.498C70.7107 88.498 87.5 71.7087 87.5 50.998C87.5 30.2874 70.7107 13.498 50 13.498C29.2893 13.498 12.5 30.2874 12.5 50.998C12.5 71.7087 29.2893 88.498 50 88.498Z" stroke="white" stroke-width="3" stroke-linecap="round" stroke-linejoin="round"/>
<path d="M23.4375 24.5156C30.449 31.5455 34.383 41.0713 34.375 51C34.383 60.9287 30.449 70.4545 23.4375 77.4844" stroke="white" stroke-width="3" stroke-linecap="round" stroke-linejoin="round"/>
<path d="M76.5642 24.5156C69.5608 31.5507 65.6289 41.0733 65.6289 51C65.6289 60.9267 69.5608 70.4494 76.5642 77.4844" stroke="white" stroke-width="3" stroke-linecap="round" stroke-linejoin="round"/>
<path d="M12.5 50.998H87.5" stroke="white" stroke-width="3" stroke-linecap="round" stroke-linejoin="round"/>
<path d="M50 13.498V88.498" stroke="white" stroke-width="3" stroke-linecap="round" stroke-linejoin="round"/>
</svg>
