<svg width="100" height="101" viewBox="0 0 100 101" fill="none" xmlns="http://www.w3.org/2000/svg">
<path d="M81.25 82.248H18.75C17.0924 82.248 15.5027 81.5896 14.3306 80.4175C13.1585 79.2454 12.5 77.6556 12.5 75.998V32.248C12.5 30.5904 13.1585 29.0007 14.3306 27.8286C15.5027 26.6565 17.0924 25.998 18.75 25.998H31.25L37.5 16.623H62.5L68.75 25.998H81.25C82.9076 25.998 84.4973 26.6565 85.6694 27.8286C86.8415 29.0007 87.5 30.5904 87.5 32.248V75.998C87.5 77.6556 86.8415 79.2454 85.6694 80.4175C84.4973 81.5896 82.9076 82.248 81.25 82.248Z" stroke="white" stroke-width="3" stroke-linecap="round" stroke-linejoin="round"/>
<path d="M50 66.623C57.7665 66.623 64.0625 60.3271 64.0625 52.5605C64.0625 44.794 57.7665 38.498 50 38.498C42.2335 38.498 35.9375 44.794 35.9375 52.5605C35.9375 60.3271 42.2335 66.623 50 66.623Z" stroke="white" stroke-width="3" stroke-linecap="round" stroke-linejoin="round"/>
</svg>
