<svg width="33" height="33" viewBox="0 0 33 33" fill="none" xmlns="http://www.w3.org/2000/svg">
<path d="M12.293 20.498C13.1214 20.498 13.793 19.8265 13.793 18.998C13.793 18.1696 13.1214 17.498 12.293 17.498C11.4645 17.498 10.793 18.1696 10.793 18.998C10.793 19.8265 11.4645 20.498 12.293 20.498Z" fill="#858584"/>
<path d="M20.293 20.498C21.1214 20.498 21.793 19.8265 21.793 18.998C21.793 18.1696 21.1214 17.498 20.293 17.498C19.4645 17.498 18.793 18.1696 18.793 18.998C18.793 19.8265 19.4645 20.498 20.293 20.498Z" fill="#858584"/>
<path fill-rule="evenodd" clip-rule="evenodd" d="M16.2856 10.9967C14.1178 10.9806 11.9608 11.3026 9.89211 11.9509C9.3651 12.1161 8.80398 11.8228 8.63881 11.2958C8.47364 10.7688 8.76697 10.2076 9.29397 10.0425C11.5586 9.3327 13.9199 8.97988 16.293 8.99667C18.6662 8.97988 21.0275 9.3327 23.2921 10.0425C23.8191 10.2076 24.1124 10.7688 23.9473 11.2958C23.7821 11.8228 23.221 12.1161 22.694 11.9509C20.6253 11.3026 18.4683 10.9806 16.3004 10.9967H16.2856Z" fill="#858584"/>
<path fill-rule="evenodd" clip-rule="evenodd" d="M8.63881 22.6992C8.80398 22.1722 9.3651 21.8789 9.89211 22.0441C11.9608 22.6924 14.1178 23.0144 16.2856 22.9983H16.3004C18.4683 23.0144 20.6253 22.6924 22.694 22.0441C23.221 21.8789 23.7821 22.1722 23.9473 22.6992C24.1124 23.2263 23.8191 23.7874 23.2921 23.9525C21.0275 24.6623 18.6662 25.0151 16.293 24.9983C13.9199 25.0151 11.5586 24.6623 9.29397 23.9525C8.76697 23.7874 8.47364 23.2263 8.63881 22.6992Z" fill="#858584"/>
<path fill-rule="evenodd" clip-rule="evenodd" d="M20.5124 5.80828C20.9429 5.56559 21.4476 5.48974 21.9303 5.59519C23.2479 5.88073 24.5378 6.28131 25.7853 6.79231C26.0661 6.90059 26.3183 7.07203 26.5224 7.29345C26.7286 7.51725 26.88 7.78593 26.9645 8.07822L31.2003 22.2226C31.3108 22.5911 31.3134 22.9835 31.2077 23.3534C31.102 23.7233 30.8925 24.0551 30.604 24.3096L30.5989 24.3142C28.5314 26.1132 25.73 27.4748 22.5481 28.2548C22.1061 28.3674 21.6387 28.3236 21.2252 28.1307C20.8134 27.9385 20.4806 27.6103 20.2828 27.2015L18.7745 24.21C18.5259 23.7168 18.7241 23.1155 19.2173 22.8668C19.7104 22.6182 20.3118 22.8164 20.5604 23.3096L22.0729 26.3096L22.074 26.3118C25.0119 25.5913 27.506 24.3542 29.286 22.8054L29.9425 23.5598L29.2809 22.8099C29.2827 22.8083 29.284 22.8063 29.2846 22.804C29.2853 22.8017 29.2853 22.7992 29.2846 22.7969L25.0485 8.65172C25.045 8.65032 25.0414 8.64889 25.0379 8.64744C23.895 8.17856 22.713 7.81119 21.5057 7.5496L21.5035 7.54912C21.5005 7.54846 21.4974 7.54894 21.4947 7.55044C21.4923 7.5518 21.4904 7.55391 21.4893 7.55644L20.5044 10.5361C20.3311 11.0605 19.7655 11.3451 19.2411 11.1717C18.7167 10.9984 18.4322 10.4328 18.6055 9.90843L19.5959 6.91223C19.7554 6.44414 20.0817 6.05117 20.5124 5.80828Z" fill="#858584"/>
<path fill-rule="evenodd" clip-rule="evenodd" d="M11.0912 7.55044C11.0885 7.54893 11.0854 7.54846 11.0824 7.54912L11.0802 7.54959C9.87285 7.81119 8.69089 8.17856 7.54798 8.64744C7.54446 8.64889 7.54092 8.65032 7.53737 8.65172L3.30139 22.7967C3.30071 22.7989 3.30061 22.8017 3.30126 22.804C3.30185 22.806 3.30297 22.8079 3.30449 22.8094C5.08418 24.3564 7.57657 25.592 10.5119 26.3118L10.513 26.3096L12.0255 23.3096C12.2741 22.8164 12.8755 22.6182 13.3686 22.8668C13.8618 23.1155 14.06 23.7168 13.8114 24.21L12.3031 27.2015C12.1052 27.6103 11.7724 27.9385 11.3607 28.1307C10.9472 28.3236 10.4798 28.3674 10.0378 28.2548C6.85584 27.4748 4.05447 26.1131 1.98701 24.3142L1.98183 24.3097C1.69336 24.0552 1.4839 23.7233 1.37821 23.3534C1.27256 22.9836 1.27508 22.5913 1.38546 22.2229C1.38543 22.223 1.38549 22.2228 1.38546 22.2229L5.62136 8.07824C5.70588 7.78594 5.85723 7.51726 6.06348 7.29345C6.26754 7.07203 6.51976 6.90059 6.80056 6.79231C8.04843 6.28116 9.33874 5.88051 10.6567 5.59495C11.1391 5.48986 11.6433 5.56577 12.0735 5.80828C12.5042 6.05116 12.8305 6.44415 12.99 6.91225L12.9929 6.92092L13.9804 9.90843C14.1537 10.4328 13.8692 10.9984 13.3448 11.1717C12.8204 11.3451 12.2548 11.0605 12.0815 10.5361L11.0965 7.55644C11.0955 7.55391 11.0936 7.5518 11.0912 7.55044Z" fill="#858584"/>
<path d="M12.293 20.498C13.1214 20.498 13.793 19.8265 13.793 18.998C13.793 18.1696 13.1214 17.498 12.293 17.498C11.4645 17.498 10.793 18.1696 10.793 18.998C10.793 19.8265 11.4645 20.498 12.293 20.498Z" fill="#858584"/>
<path d="M20.293 20.498C21.1214 20.498 21.793 19.8265 21.793 18.998C21.793 18.1696 21.1214 17.498 20.293 17.498C19.4645 17.498 18.793 18.1696 18.793 18.998C18.793 19.8265 19.4645 20.498 20.293 20.498Z" fill="#858584"/>
<path fill-rule="evenodd" clip-rule="evenodd" d="M16.2856 10.9967C14.1178 10.9806 11.9608 11.3026 9.89211 11.9509C9.3651 12.1161 8.80398 11.8228 8.63881 11.2958C8.47364 10.7688 8.76697 10.2076 9.29397 10.0425C11.5586 9.3327 13.9199 8.97988 16.293 8.99667C18.6662 8.97988 21.0275 9.3327 23.2921 10.0425C23.8191 10.2076 24.1124 10.7688 23.9473 11.2958C23.7821 11.8228 23.221 12.1161 22.694 11.9509C20.6253 11.3026 18.4683 10.9806 16.3004 10.9967H16.2856Z" fill="#858584"/>
<path fill-rule="evenodd" clip-rule="evenodd" d="M8.63881 22.6992C8.80398 22.1722 9.3651 21.8789 9.89211 22.0441C11.9608 22.6924 14.1178 23.0144 16.2856 22.9983H16.3004C18.4683 23.0144 20.6253 22.6924 22.694 22.0441C23.221 21.8789 23.7821 22.1722 23.9473 22.6992C24.1124 23.2263 23.8191 23.7874 23.2921 23.9525C21.0275 24.6623 18.6662 25.0151 16.293 24.9983C13.9199 25.0151 11.5586 24.6623 9.29397 23.9525C8.76697 23.7874 8.47364 23.2263 8.63881 22.6992Z" fill="#858584"/>
<path fill-rule="evenodd" clip-rule="evenodd" d="M20.5124 5.80828C20.9429 5.56559 21.4476 5.48974 21.9303 5.59519C23.2479 5.88073 24.5378 6.28131 25.7853 6.79231C26.0661 6.90059 26.3183 7.07203 26.5224 7.29345C26.7286 7.51725 26.88 7.78593 26.9645 8.07822L31.2003 22.2226C31.3108 22.5911 31.3134 22.9835 31.2077 23.3534C31.102 23.7233 30.8925 24.0551 30.604 24.3096L30.5989 24.3142C28.5314 26.1132 25.73 27.4748 22.5481 28.2548C22.1061 28.3674 21.6387 28.3236 21.2252 28.1307C20.8134 27.9385 20.4806 27.6103 20.2828 27.2015L18.7745 24.21C18.5259 23.7168 18.7241 23.1155 19.2173 22.8668C19.7104 22.6182 20.3118 22.8164 20.5604 23.3096L22.0729 26.3096L22.074 26.3118C25.0119 25.5913 27.506 24.3542 29.286 22.8054L29.9425 23.5598L29.2809 22.8099C29.2827 22.8083 29.284 22.8063 29.2846 22.804C29.2853 22.8017 29.2853 22.7992 29.2846 22.7969L25.0485 8.65172C25.045 8.65032 25.0414 8.64889 25.0379 8.64744C23.895 8.17856 22.713 7.81119 21.5057 7.5496L21.5035 7.54912C21.5005 7.54846 21.4974 7.54894 21.4947 7.55044C21.4923 7.5518 21.4904 7.55391 21.4893 7.55644L20.5044 10.5361C20.3311 11.0605 19.7655 11.3451 19.2411 11.1717C18.7167 10.9984 18.4322 10.4328 18.6055 9.90843L19.5959 6.91223C19.7554 6.44414 20.0817 6.05117 20.5124 5.80828Z" fill="#858584"/>
<path fill-rule="evenodd" clip-rule="evenodd" d="M11.0912 7.55044C11.0885 7.54893 11.0854 7.54846 11.0824 7.54912L11.0802 7.54959C9.87285 7.81119 8.69089 8.17856 7.54798 8.64744C7.54446 8.64889 7.54092 8.65032 7.53737 8.65172L3.30139 22.7967C3.30071 22.7989 3.30061 22.8017 3.30126 22.804C3.30185 22.806 3.30297 22.8079 3.30449 22.8094C5.08418 24.3564 7.57657 25.592 10.5119 26.3118L10.513 26.3096L12.0255 23.3096C12.2741 22.8164 12.8755 22.6182 13.3686 22.8668C13.8618 23.1155 14.06 23.7168 13.8114 24.21L12.3031 27.2015C12.1052 27.6103 11.7724 27.9385 11.3607 28.1307C10.9472 28.3236 10.4798 28.3674 10.0378 28.2548C6.85584 27.4748 4.05447 26.1131 1.98701 24.3142L1.98183 24.3097C1.69336 24.0552 1.4839 23.7233 1.37821 23.3534C1.27256 22.9836 1.27508 22.5913 1.38546 22.2229C1.38543 22.223 1.38549 22.2228 1.38546 22.2229L5.62136 8.07824C5.70588 7.78594 5.85723 7.51726 6.06348 7.29345C6.26754 7.07203 6.51976 6.90059 6.80056 6.79231C8.04843 6.28116 9.33874 5.88051 10.6567 5.59495C11.1391 5.48986 11.6433 5.56577 12.0735 5.80828C12.5042 6.05116 12.8305 6.44415 12.99 6.91225L12.9929 6.92092L13.9804 9.90843C14.1537 10.4328 13.8692 10.9984 13.3448 11.1717C12.8204 11.3451 12.2548 11.0605 12.0815 10.5361L11.0965 7.55644C11.0955 7.55391 11.0936 7.5518 11.0912 7.55044Z" fill="#858584"/>
</svg>
