<svg width="20" height="21" viewBox="0 0 20 21" fill="none" xmlns="http://www.w3.org/2000/svg">
<path fill-rule="evenodd" clip-rule="evenodd" d="M1.875 5.37305C1.875 5.02787 2.15482 4.74805 2.5 4.74805H17.5C17.8452 4.74805 18.125 5.02787 18.125 5.37305V15.998C18.125 16.3296 17.9933 16.6475 17.7589 16.8819C17.5245 17.1164 17.2065 17.248 16.875 17.248H3.125C2.79348 17.248 2.47554 17.1164 2.24112 16.8819C2.0067 16.6475 1.875 16.3296 1.875 15.998V5.37305ZM3.125 5.99805V15.998H16.875V5.99805H3.125Z" fill="white"/>
<path fill-rule="evenodd" clip-rule="evenodd" d="M2.03928 4.95072C2.27253 4.69627 2.66788 4.67908 2.92233 4.91233L10 11.4002L17.0777 4.91233C17.3321 4.67908 17.7275 4.69627 17.9607 4.95072C18.194 5.20517 18.1768 5.60053 17.9223 5.83377L10.4223 12.7088C10.1834 12.9278 9.81663 12.9278 9.57768 12.7088L2.07768 5.83377C1.82323 5.60053 1.80604 5.20517 2.03928 4.95072Z" fill="white"/>
</svg>
