<svg width="21" height="21" viewBox="0 0 21 21" fill="none" xmlns="http://www.w3.org/2000/svg">
<path fill-rule="evenodd" clip-rule="evenodd" d="M2.58203 5.37305C2.58203 5.02787 2.86185 4.74805 3.20703 4.74805H18.207C18.5522 4.74805 18.832 5.02787 18.832 5.37305V15.998C18.832 16.3296 18.7003 16.6475 18.4659 16.8819C18.2315 17.1164 17.9135 17.248 17.582 17.248H3.83203C3.50051 17.248 3.18257 17.1164 2.94815 16.8819C2.71373 16.6475 2.58203 16.3296 2.58203 15.998V5.37305ZM3.83203 5.99805V15.998H17.582V5.99805H3.83203Z" fill="white"/>
<path fill-rule="evenodd" clip-rule="evenodd" d="M2.74631 4.95072C2.97956 4.69627 3.37491 4.67908 3.62936 4.91233L10.707 11.4002L17.7847 4.91233C18.0392 4.67908 18.4345 4.69627 18.6678 4.95072C18.901 5.20517 18.8838 5.60053 18.6294 5.83377L11.1294 12.7088C10.8904 12.9278 10.5237 12.9278 10.2847 12.7088L2.78471 5.83377C2.53026 5.60053 2.51307 5.20517 2.74631 4.95072Z" fill="white"/>
</svg>
