<svg width="20" height="21" viewBox="0 0 20 21" fill="none" xmlns="http://www.w3.org/2000/svg">
<path fill-rule="evenodd" clip-rule="evenodd" d="M3.32958 3.16254C3.58499 2.93035 3.98028 2.94917 4.21247 3.20458L16.7125 16.9546C16.9447 17.21 16.9258 17.6053 16.6704 17.8375C16.415 18.0697 16.0197 18.0508 15.7875 17.7954L3.28754 4.04542C3.05535 3.79001 3.07417 3.39473 3.32958 3.16254Z" fill="#A259FF"/>
<path fill-rule="evenodd" clip-rule="evenodd" d="M8.3606 7.76713C8.59277 8.02256 8.57392 8.41784 8.31848 8.65C7.94509 8.98939 7.68314 9.43382 7.56705 9.92488C7.45097 10.4159 7.4862 10.9306 7.66811 11.4013C7.85001 11.8719 8.17008 12.2765 8.58624 12.5619C9.00239 12.8472 9.49515 13 9.99973 13L10.002 13C10.6227 13.0024 11.2214 12.7709 11.679 12.3517C11.9336 12.1185 12.3289 12.1358 12.5621 12.3903C12.7952 12.6448 12.7779 13.0402 12.5234 13.2734C11.8344 13.9046 10.9329 14.2533 9.99845 14.25C9.24197 14.2497 8.50327 14.0206 7.87935 13.5928C7.25512 13.1648 6.77502 12.5579 6.50216 11.8519C6.2293 11.1459 6.17646 10.3739 6.35058 9.63731C6.5247 8.90073 6.91764 8.23409 7.47773 7.725C7.73316 7.49284 8.12844 7.51169 8.3606 7.76713Z" fill="#A259FF"/>
<path fill-rule="evenodd" clip-rule="evenodd" d="M6.33908 5.57782C6.49465 5.88595 6.37098 6.26185 6.06285 6.41743C4.5773 7.16749 3.51277 8.25402 2.81644 9.16333C2.46931 9.61663 2.21717 10.0214 2.05306 10.3101C2.01293 10.3808 1.97814 10.4443 1.94857 10.4998C2.0221 10.6376 2.12775 10.8247 2.26708 11.046C2.58024 11.5434 3.05999 12.2076 3.7231 12.8707C5.04571 14.1933 7.08277 15.5001 9.99991 15.5001H10.005C11.3701 15.5113 12.7183 15.1967 13.9375 14.5826C14.2458 14.4273 14.6216 14.5513 14.7768 14.8596C14.9321 15.1679 14.8081 15.5437 14.4998 15.6989C13.1038 16.4021 11.5603 16.7625 9.9973 16.7501C6.66583 16.7494 4.32872 15.2441 2.83922 13.7546C2.09608 13.0114 1.5602 12.2694 1.20929 11.712C1.03353 11.4329 0.903281 11.1987 0.815892 11.0318C0.772175 10.9484 0.739113 10.8816 0.716384 10.8344C0.705017 10.8108 0.696227 10.7921 0.689974 10.7786L0.68249 10.7622L0.680163 10.7571L0.679352 10.7553L0.679035 10.7546C0.6789 10.7543 0.678776 10.754 1.24991 10.5001C0.678533 10.2468 0.678622 10.2466 0.678717 10.2464L0.679459 10.2448L0.680889 10.2416L0.685268 10.2319C0.688864 10.224 0.693817 10.2133 0.700144 10.1998C0.712796 10.1729 0.73095 10.1351 0.754737 10.0875C0.802293 9.99226 0.87246 9.85767 0.966284 9.69256C1.15374 9.36269 1.43676 8.90903 1.824 8.40334C2.59642 7.39469 3.79752 6.16091 5.49946 5.30159C5.80759 5.14602 6.1835 5.26969 6.33908 5.57782ZM1.24991 10.5001L0.678717 10.2464C0.607133 10.4079 0.607036 10.5926 0.678776 10.754L1.24991 10.5001Z" fill="#A259FF"/>
<path fill-rule="evenodd" clip-rule="evenodd" d="M8.27972 4.39141C8.84843 4.29621 9.42411 4.24892 10.0007 4.25002C10.0009 4.25002 10.0005 4.25002 10.0007 4.25002L10.0001 4.87502V4.25002C10.0003 4.25002 10.0005 4.25002 10.0007 4.25002C13.3333 4.25021 15.671 5.75578 17.1608 7.24558C17.9039 7.98872 18.4398 8.73078 18.7907 9.2881C18.9665 9.56726 19.0967 9.80148 19.1841 9.96832C19.2278 10.0518 19.2609 10.1185 19.2836 10.1657C19.295 10.1893 19.3038 10.2081 19.31 10.2216L19.3175 10.2379L19.3198 10.2431L19.3207 10.2449L19.321 10.2456C19.3211 10.2459 19.3212 10.2462 18.7501 10.5C18.179 10.2462 18.179 10.246 18.1791 10.2459L18.1743 10.2562C18.1699 10.2658 18.1626 10.2814 18.1522 10.3027C18.1316 10.3451 18.0992 10.41 18.0546 10.4937C18.0535 10.4958 18.0524 10.4979 18.0513 10.5C17.9778 10.3623 17.8722 10.1753 17.7329 9.95412C17.4198 9.45676 16.94 8.79257 16.2769 8.12946C14.9543 6.80685 12.9172 5.50002 10.0001 5.50002H9.99886C9.49202 5.49902 8.98599 5.54058 8.4861 5.62425C8.14566 5.68124 7.82348 5.45146 7.76649 5.11102C7.7095 4.77058 7.93928 4.4484 8.27972 4.39141ZM18.7501 10.5L19.3212 10.7539C19.3931 10.5923 19.3931 10.4078 19.3212 10.2462L18.7501 10.5ZM18.0513 10.5C17.962 10.6673 17.8255 10.9071 17.6391 11.1921C17.2607 11.7708 16.6816 12.5284 15.8803 13.2451C15.623 13.4753 15.601 13.8704 15.8311 14.1276C16.0613 14.3849 16.4564 14.4069 16.7137 14.1768C17.6155 13.3701 18.2629 12.5222 18.6853 11.8763C18.8969 11.5526 19.0533 11.2777 19.158 11.0813C19.2103 10.983 19.2498 10.9041 19.2768 10.8484C19.2904 10.8205 19.3008 10.7984 19.3082 10.7825L19.317 10.7633L19.3197 10.7574L19.3206 10.7553L19.3209 10.7545C19.321 10.7543 19.3212 10.7539 18.7501 10.5C18.179 10.7539 18.1791 10.7541 18.1792 10.7543L18.1754 10.7462C18.1719 10.7384 18.1658 10.7256 18.1574 10.708C18.1404 10.6728 18.1137 10.6187 18.0768 10.5483C18.0688 10.533 18.0603 10.5169 18.0513 10.5Z" fill="#A259FF"/>
<path fill-rule="evenodd" clip-rule="evenodd" d="M9.97198 7.31345C10.0362 6.97431 10.3633 6.75147 10.7024 6.81573C11.5002 6.96689 12.2272 7.37346 12.7737 7.97407C13.3202 8.57467 13.6564 9.33673 13.7318 10.1452C13.7638 10.4889 13.5112 10.7935 13.1675 10.8255C12.8238 10.8576 12.5192 10.6049 12.4872 10.2612C12.437 9.72279 12.213 9.21528 11.8491 8.8153C11.4852 8.41531 11.001 8.14455 10.4697 8.04388C10.1306 7.97962 9.90772 7.65259 9.97198 7.31345Z" fill="#A259FF"/>
</svg>
