<svg width="20" height="20" viewBox="0 0 20 20" fill="none" xmlns="http://www.w3.org/2000/svg">
<path fill-rule="evenodd" clip-rule="evenodd" d="M3.32958 2.66254C3.58499 2.43035 3.98028 2.44917 4.21247 2.70458L16.7125 16.4546C16.9447 16.71 16.9258 17.1053 16.6704 17.3375C16.415 17.5697 16.0197 17.5508 15.7875 17.2954L3.28754 3.54542C3.05535 3.29001 3.07417 2.89473 3.32958 2.66254Z" fill="#A259FF"/>
<path fill-rule="evenodd" clip-rule="evenodd" d="M8.3606 7.26713C8.59277 7.52256 8.57392 7.91784 8.31848 8.15C7.94509 8.48939 7.68314 8.93382 7.56705 9.42488C7.45097 9.91593 7.4862 10.4306 7.66811 10.9013C7.85001 11.3719 8.17008 11.7765 8.58624 12.0619C9.00239 12.3472 9.49515 12.5 9.99973 12.5L10.002 12.5C10.6227 12.5024 11.2214 12.2709 11.679 11.8517C11.9336 11.6185 12.3289 11.6358 12.5621 11.8903C12.7952 12.1448 12.7779 12.5402 12.5234 12.7734C11.8344 13.4046 10.9329 13.7533 9.99845 13.75C9.24197 13.7497 8.50327 13.5206 7.87935 13.0928C7.25512 12.6648 6.77502 12.0579 6.50216 11.3519C6.2293 10.6459 6.17646 9.87389 6.35058 9.13731C6.5247 8.40073 6.91764 7.73409 7.47773 7.225C7.73316 6.99284 8.12844 7.01169 8.3606 7.26713Z" fill="#A259FF"/>
<path fill-rule="evenodd" clip-rule="evenodd" d="M6.33908 5.07782C6.49465 5.38595 6.37098 5.76185 6.06285 5.91743C4.5773 6.66749 3.51277 7.75402 2.81644 8.66333C2.46931 9.11663 2.21717 9.52137 2.05306 9.81015C2.01293 9.88076 1.97814 9.94433 1.94857 9.99983C2.0221 10.1376 2.12775 10.3247 2.26708 10.546C2.58024 11.0434 3.05999 11.7076 3.7231 12.3707C5.04571 13.6933 7.08277 15.0001 9.99991 15.0001H10.005C11.3701 15.0113 12.7183 14.6967 13.9375 14.0826C14.2458 13.9273 14.6216 14.0513 14.7768 14.3596C14.9321 14.6679 14.8081 15.0437 14.4998 15.1989C13.1038 15.9021 11.5603 16.2625 9.9973 16.2501C6.66583 16.2494 4.32872 14.7441 2.83922 13.2546C2.09608 12.5114 1.5602 11.7694 1.20929 11.212C1.03353 10.9329 0.903281 10.6987 0.815892 10.5318C0.772175 10.4484 0.739113 10.3816 0.716384 10.3344C0.705017 10.3108 0.696227 10.2921 0.689974 10.2786L0.68249 10.2622L0.680163 10.2571L0.679352 10.2553L0.679035 10.2546C0.6789 10.2543 0.678776 10.254 1.24991 10.0001C0.678533 9.74685 0.678622 9.74664 0.678717 9.74643L0.679459 9.74476L0.680889 9.74157L0.685268 9.73191C0.688864 9.72403 0.693817 9.7133 0.700144 9.69983C0.712796 9.67292 0.73095 9.6351 0.754737 9.58747C0.802293 9.49226 0.87246 9.35767 0.966284 9.19256C1.15374 8.86269 1.43676 8.40903 1.824 7.90334C2.59642 6.89469 3.79752 5.66091 5.49946 4.80159C5.80759 4.64602 6.1835 4.76969 6.33908 5.07782ZM1.24991 10.0001L0.678717 9.74643C0.607133 9.90791 0.607036 10.0926 0.678776 10.254L1.24991 10.0001Z" fill="#A259FF"/>
<path fill-rule="evenodd" clip-rule="evenodd" d="M8.27972 3.89141C8.84843 3.79621 9.42411 3.74892 10.0007 3.75002C10.0009 3.75002 10.0005 3.75002 10.0007 3.75002L10.0001 4.37502V3.75002C10.0003 3.75002 10.0005 3.75002 10.0007 3.75002C13.3333 3.75021 15.671 5.25578 17.1608 6.74558C17.9039 7.48872 18.4398 8.23078 18.7907 8.7881C18.9665 9.06726 19.0967 9.30148 19.1841 9.46832C19.2278 9.55178 19.2609 9.61851 19.2836 9.66571C19.295 9.68932 19.3038 9.70806 19.31 9.72158L19.3175 9.73792L19.3198 9.74308L19.3207 9.74489L19.321 9.7456C19.3211 9.7459 19.3212 9.74618 18.7501 10C18.179 9.74618 18.179 9.74605 18.1791 9.74592L18.1743 9.75623C18.1699 9.76579 18.1626 9.78142 18.1522 9.80265C18.1316 9.84514 18.0992 9.91002 18.0546 9.99372C18.0535 9.99581 18.0524 9.99792 18.0513 10C17.9778 9.8623 17.8722 9.67527 17.7329 9.45412C17.4198 8.95676 16.94 8.29257 16.2769 7.62946C14.9543 6.30685 12.9172 5.00002 10.0001 5.00002H9.99886C9.49202 4.99902 8.98599 5.04058 8.4861 5.12425C8.14566 5.18124 7.82348 4.95146 7.76649 4.61102C7.7095 4.27058 7.93928 3.9484 8.27972 3.89141ZM18.7501 10L19.3212 10.2539C19.3931 10.0923 19.3931 9.90779 19.3212 9.74618L18.7501 10ZM18.0513 10C17.962 10.1673 17.8255 10.4071 17.6391 10.6921C17.2607 11.2708 16.6816 12.0284 15.8803 12.7451C15.623 12.9753 15.601 13.3704 15.8311 13.6276C16.0613 13.8849 16.4564 13.9069 16.7137 13.6768C17.6155 12.8701 18.2629 12.0222 18.6853 11.3763C18.8969 11.0526 19.0533 10.7777 19.158 10.5813C19.2103 10.483 19.2498 10.4041 19.2768 10.3484C19.2904 10.3205 19.3008 10.2984 19.3082 10.2825L19.317 10.2633L19.3197 10.2574L19.3206 10.2553L19.3209 10.2545C19.321 10.2543 19.3212 10.2539 18.7501 10C18.179 10.2539 18.1791 10.2541 18.1792 10.2543L18.1754 10.2462C18.1719 10.2384 18.1658 10.2256 18.1574 10.208C18.1404 10.1728 18.1137 10.1187 18.0768 10.0483C18.0688 10.033 18.0603 10.0169 18.0513 10Z" fill="#A259FF"/>
<path fill-rule="evenodd" clip-rule="evenodd" d="M9.97198 6.81345C10.0362 6.47431 10.3633 6.25147 10.7024 6.31573C11.5002 6.46689 12.2272 6.87346 12.7737 7.47407C13.3202 8.07467 13.6564 8.83673 13.7318 9.64524C13.7638 9.98893 13.5112 10.2935 13.1675 10.3255C12.8238 10.3576 12.5192 10.1049 12.4872 9.76124C12.437 9.22279 12.213 8.71528 11.8491 8.3153C11.4852 7.91531 11.001 7.64455 10.4697 7.54388C10.1306 7.47962 9.90772 7.15259 9.97198 6.81345Z" fill="#A259FF"/>
</svg>
