<svg width="270" height="251" viewBox="0 0 270 251" fill="none" xmlns="http://www.w3.org/2000/svg">
<g clip-path="url(#clip0_2902_1825)">
<path d="M135 230.165C197.132 230.165 247.5 183.529 247.5 125.999C247.5 68.4691 197.132 21.832 135 21.832C72.8679 21.832 22.5 68.4691 22.5 125.999C22.5 183.529 72.8679 230.165 135 230.165Z" fill="url(#paint0_linear_2902_1825)"/>
<g filter="url(#filter0_f_2902_1825)">
<path d="M141.848 202.085C183.449 202.085 217.174 170.858 217.174 132.338C217.174 93.8183 183.449 62.5918 141.848 62.5918C100.246 62.5918 66.5215 93.8183 66.5215 132.338C66.5215 170.858 100.246 202.085 141.848 202.085Z" fill="url(#paint1_linear_2902_1825)"/>
</g>
<path fill-rule="evenodd" clip-rule="evenodd" d="M60.7471 83.0448C62.6292 83.0448 64.155 81.632 64.155 79.8893C64.155 78.1466 62.6292 76.7339 60.7471 76.7339C58.865 76.7339 57.3392 78.1466 57.3392 79.8893C57.3392 81.632 58.865 83.0448 60.7471 83.0448ZM60.7471 85.4115C64.0409 85.4115 66.711 82.9391 66.711 79.8893C66.711 76.8396 64.0409 74.3672 60.7471 74.3672C57.4534 74.3672 54.7832 76.8396 54.7832 79.8893C54.7832 82.9391 57.4534 85.4115 60.7471 85.4115Z" fill="white"/>
<path fill-rule="evenodd" clip-rule="evenodd" d="M49.9854 180.871C51.8675 180.871 53.3933 179.458 53.3933 177.715C53.3933 175.972 51.8675 174.56 49.9854 174.56C48.1033 174.56 46.5775 175.972 46.5775 177.715C46.5775 179.458 48.1033 180.871 49.9854 180.871ZM49.9854 183.238C53.2792 183.238 55.9493 180.765 55.9493 177.715C55.9493 174.665 53.2792 172.193 49.9854 172.193C46.6916 172.193 44.0215 174.665 44.0215 177.715C44.0215 180.765 46.6916 183.238 49.9854 183.238Z" fill="white"/>
<path fill-rule="evenodd" clip-rule="evenodd" d="M208.463 47.7186C210.346 47.7186 211.872 46.3059 211.872 44.5631C211.872 42.8205 210.346 41.4077 208.463 41.4077C206.581 41.4077 205.056 42.8205 205.056 44.5631C205.056 46.3059 206.581 47.7186 208.463 47.7186ZM208.463 50.0853C211.757 50.0853 214.428 47.6129 214.428 44.5631C214.428 41.5134 211.757 39.041 208.463 39.041C205.17 39.041 202.5 41.5134 202.5 44.5631C202.5 47.6129 205.17 50.0853 208.463 50.0853Z" fill="white"/>
<path d="M63.9694 39.2133C64.22 38.2518 65.6971 38.2518 65.9477 39.2133L66.7914 42.4494C66.881 42.7929 67.1706 43.0612 67.5418 43.1442L71.0367 43.9254C72.0752 44.1574 72.0752 45.5251 71.0367 45.7572L67.5418 46.5383C67.1706 46.6213 66.881 46.8895 66.7914 47.2332L65.9477 50.4692C65.6971 51.4307 64.22 51.4307 63.9694 50.4692L63.1257 47.2332C63.0361 46.8895 62.7464 46.6213 62.3753 46.5383L58.8804 45.7572C57.842 45.5251 57.842 44.1574 58.8804 43.9254L62.3753 43.1442C62.7464 43.0612 63.0361 42.7929 63.1257 42.4494L63.9694 39.2133Z" fill="white"/>
<path d="M221.374 72.185C221.648 71.1311 223.267 71.1311 223.542 72.185L224.467 75.7321C224.565 76.1087 224.883 76.4028 225.289 76.4937L229.12 77.35C230.258 77.6043 230.258 79.1034 229.12 79.3579L225.289 80.2141C224.883 80.3051 224.565 80.5991 224.467 80.9757L223.542 84.5229C223.267 85.5768 221.648 85.5768 221.374 84.5229L220.448 80.9757C220.35 80.5991 220.033 80.3051 219.626 80.2141L215.795 79.3579C214.657 79.1034 214.657 77.6043 215.795 77.35L219.626 76.4937C220.033 76.4028 220.35 76.1087 220.448 75.7321L221.374 72.185Z" fill="url(#paint2_linear_2902_1825)"/>
<path d="M53.8352 201.394C55.1305 201.202 56.1645 202.379 55.6965 203.514L52.5377 211.173C52.0697 212.308 50.4507 212.548 49.6234 211.605L44.0396 205.242C43.2123 204.3 43.7973 202.882 45.0925 202.69L53.8352 201.394Z" fill="url(#paint3_linear_2902_1825)"/>
<path d="M206.392 183.976C206.069 182.798 207.241 181.738 208.504 182.066L217.029 184.285C218.291 184.613 218.697 186.084 217.758 186.932L211.422 192.659C210.482 193.507 208.905 193.096 208.58 191.92L206.392 183.976Z" fill="url(#paint4_linear_2902_1825)"/>
<g filter="url(#filter1_f_2902_1825)">
<path d="M194.7 206.13C194.7 211.719 166.067 216.249 130.748 216.249C95.4288 216.249 66.7969 211.719 66.7969 206.13C66.7969 200.542 95.4288 196.012 130.748 196.012C166.067 196.012 194.7 200.542 194.7 206.13Z" fill="url(#paint5_radial_2902_1825)"/>
</g>
<g filter="url(#filter2_i_2902_1825)">
<path d="M131.992 60.8629L90.339 67.6634C86.9927 68.2097 84.7584 71.1644 85.3484 74.2627L95.8462 129.389C96.4362 132.487 99.6273 134.556 102.974 134.009L144.626 127.209C147.973 126.663 150.207 123.708 149.617 120.61L139.12 65.4838C138.529 62.3855 135.338 60.3165 131.992 60.8629Z" fill="url(#paint6_linear_2902_1825)"/>
</g>
<path d="M132.594 89.2004L100.238 94.4832C99.1482 94.6611 98.4207 95.6231 98.6128 96.632L98.614 96.6379C98.8061 97.6467 99.8451 98.3204 100.935 98.1425L133.292 92.8597C134.381 92.6818 135.108 91.7197 134.917 90.7109L134.916 90.705C134.723 89.6961 133.684 89.0225 132.594 89.2004Z" fill="url(#paint7_linear_2902_1825)"/>
<path d="M137.518 114.945L105.439 120.182C104.359 120.359 103.634 121.294 103.82 122.271L103.821 122.277C104.007 123.255 105.034 123.904 106.114 123.728L138.193 118.49C139.274 118.314 139.997 117.379 139.812 116.402L139.811 116.395C139.625 115.418 138.598 114.768 137.518 114.945Z" fill="url(#paint8_linear_2902_1825)"/>
<path d="M134.952 101.474L102.873 106.712C101.792 106.888 101.068 107.823 101.254 108.8L101.255 108.807C101.441 109.784 102.467 110.433 103.548 110.257L135.627 105.019C136.707 104.843 137.432 103.908 137.246 102.93L137.245 102.925C137.058 101.947 136.032 101.298 134.952 101.474Z" fill="url(#paint9_linear_2902_1825)"/>
<path d="M108.439 73.4864L98.9837 75.0302C96.8892 75.3722 95.4906 77.2215 95.8599 79.1609L96.3226 81.5906C96.6919 83.5299 98.6893 84.8248 100.784 84.4829L110.239 82.9391C112.334 82.5972 113.733 80.7478 113.363 78.8084L112.9 76.3788C112.531 74.4394 110.534 73.1445 108.439 73.4864Z" fill="#A259FF"/>
<g filter="url(#filter3_i_2902_1825)">
<path d="M181.632 76.0645H126.523C123.955 76.0645 121.873 77.9921 121.873 80.3699V104.354C121.873 106.732 123.955 108.66 126.523 108.66H181.632C184.2 108.66 186.282 106.732 186.282 104.354V80.3699C186.282 77.9921 184.2 76.0645 181.632 76.0645Z" fill="url(#paint10_linear_2902_1825)"/>
</g>
<path d="M135.474 97.3077C138.427 97.3077 140.82 95.0916 140.82 92.3579C140.82 89.6242 138.427 87.4082 135.474 87.4082C132.522 87.4082 130.129 89.6242 130.129 92.3579C130.129 95.0916 132.522 97.3077 135.474 97.3077Z" fill="white"/>
<path d="M154.579 97.3077C157.531 97.3077 159.924 95.0916 159.924 92.3579C159.924 89.6242 157.531 87.4082 154.579 87.4082C151.626 87.4082 149.232 89.6242 149.232 92.3579C149.232 95.0916 151.626 97.3077 154.579 97.3077Z" fill="white"/>
<path d="M173.682 97.3077C176.635 97.3077 179.027 95.0916 179.027 92.3579C179.027 89.6242 176.635 87.4082 173.682 87.4082C170.73 87.4082 168.336 89.6242 168.336 92.3579C168.336 95.0916 170.73 97.3077 173.682 97.3077Z" fill="white"/>
<path fill-rule="evenodd" clip-rule="evenodd" d="M125.429 162.242C125.891 159.815 128.39 158.196 131.01 158.623L158.538 163.118C162.299 163.732 165.699 165.349 168.108 167.686C170.516 170.021 172.148 173.341 171.449 177.016C170.748 180.692 167.989 183.295 164.864 184.728C161.737 186.162 157.944 186.608 154.181 185.994L88.7729 175.314C86.1526 174.887 84.403 172.572 84.865 170.147C85.327 167.72 87.8257 166.1 90.4461 166.528L155.855 177.207C157.806 177.525 159.486 177.239 160.588 176.734C161.692 176.227 161.919 175.686 161.96 175.467C162.001 175.25 161.989 174.671 161.14 173.847C160.291 173.024 158.817 172.223 156.865 171.904L129.224 166.501C126.604 166.073 124.967 164.668 125.429 162.242Z" fill="url(#paint11_linear_2902_1825)"/>
<path fill-rule="evenodd" clip-rule="evenodd" d="M178.6 116.829C179.635 114.77 182.036 113.612 184.451 114.006L206.032 117.53C208.978 118.011 210.947 120.612 210.427 123.341C209.907 126.07 207.097 127.891 204.151 127.41L186.666 124.555L176.338 145.083C175.075 147.595 171.851 148.682 169.139 147.512C166.427 146.342 165.252 143.358 166.516 140.847L178.6 116.829Z" fill="url(#paint12_linear_2902_1825)"/>
<path d="M101.679 193.086C108.063 194.128 114.15 190.181 115.276 184.27C116.401 178.359 112.139 172.723 105.756 171.681C99.3719 170.638 93.2844 174.586 92.1588 180.496C91.0332 186.407 95.2957 192.043 101.679 193.086Z" fill="url(#paint13_linear_2902_1825)"/>
<path d="M173.623 125.899L93.9691 112.894C87.9982 111.919 82.6949 115.889 83.1108 121.015L84.1055 150.928C84.4073 154.631 87.671 157.755 91.9833 158.459L161.416 174.134L180.843 136.985C185.32 129.461 179.608 126.876 173.623 125.899Z" fill="url(#paint14_linear_2902_1825)"/>
<path d="M102.372 187.724C105.579 188.248 108.637 186.265 109.203 183.296C109.768 180.327 107.627 177.494 104.42 176.971C101.212 176.447 98.1542 178.43 97.5886 181.4C97.0231 184.369 99.1646 187.201 102.372 187.724Z" fill="url(#paint15_linear_2902_1825)"/>
<mask id="mask0_2902_1825" style="mask-type:alpha" maskUnits="userSpaceOnUse" x="83" y="112" width="99" height="63">
<path d="M173.621 125.899L93.9672 112.894C87.9963 111.919 82.6929 115.889 83.1089 121.015L84.1036 150.928C84.4054 154.631 87.669 157.755 91.9813 158.459L161.413 174.134L180.842 136.985C183.128 132.286 179.606 126.876 173.621 125.899Z" fill="url(#paint16_linear_2902_1825)"/>
</mask>
<g mask="url(#mask0_2902_1825)">
<path d="M135.082 145.624C135.427 143.93 137.191 142.812 139.021 143.125C140.85 143.438 142.054 145.065 141.708 146.758L137.149 169.088C136.803 170.781 135.04 171.9 133.21 171.587C131.38 171.274 130.177 169.647 130.522 167.954L135.082 145.624Z" fill="#A259FF"/>
<path d="M194.586 131.099C196.114 131.345 197.142 132.692 196.884 134.108L196.696 135.133C196.437 136.549 194.988 137.497 193.46 137.252L82.0871 119.341C80.5593 119.095 79.5308 117.748 79.79 116.333L79.9777 115.308C80.2368 113.892 81.6855 112.944 83.2134 113.189L194.586 131.099Z" fill="#A259FF"/>
<path d="M153.826 148.758C154.171 147.065 155.935 145.946 157.764 146.26C159.595 146.573 160.798 148.2 160.452 149.893L155.893 172.223C155.548 173.916 153.784 175.035 151.953 174.722C150.124 174.409 148.921 172.782 149.266 171.089L153.826 148.758Z" fill="#A259FF"/>
<path d="M116.341 142.487C116.687 140.794 118.451 139.675 120.28 139.988C122.11 140.301 123.314 141.928 122.967 143.621L118.409 165.952C118.063 167.645 116.299 168.763 114.469 168.451C112.64 168.137 111.436 166.511 111.782 164.818L116.341 142.487Z" fill="#A259FF"/>
<path d="M97.3839 139.391C97.7297 137.698 99.4933 136.58 101.323 136.892C103.153 137.206 104.356 138.832 104.01 140.525L99.4514 162.856C99.1058 164.549 97.3422 165.668 95.5122 165.355C93.6824 165.042 92.4791 163.415 92.8248 161.722L97.3839 139.391Z" fill="#A259FF"/>
<path d="M80.9232 113.208C81.2734 111.369 83.1666 110.142 85.1519 110.466L182.489 126.357C184.473 126.682 185.799 128.435 185.449 130.273C185.099 132.112 183.206 133.339 181.221 133.015L83.8842 117.123C81.8989 116.799 80.5732 115.046 80.9232 113.208Z" fill="url(#paint17_linear_2902_1825)"/>
</g>
</g>
<defs>
<filter id="filter0_f_2902_1825" x="12.5215" y="8.5918" width="258.652" height="247.492" filterUnits="userSpaceOnUse" color-interpolation-filters="sRGB">
<feFlood flood-opacity="0" result="BackgroundImageFix"/>
<feBlend mode="normal" in="SourceGraphic" in2="BackgroundImageFix" result="shape"/>
<feGaussianBlur stdDeviation="27" result="effect1_foregroundBlur_2902_1825"/>
</filter>
<filter id="filter1_f_2902_1825" x="46.1095" y="175.324" width="169.277" height="61.6111" filterUnits="userSpaceOnUse" color-interpolation-filters="sRGB">
<feFlood flood-opacity="0" result="BackgroundImageFix"/>
<feBlend mode="normal" in="SourceGraphic" in2="BackgroundImageFix" result="shape"/>
<feGaussianBlur stdDeviation="10.3437" result="effect1_foregroundBlur_2902_1825"/>
</filter>
<filter id="filter2_i_2902_1825" x="85.2539" y="60.7754" width="66.8416" height="78.8862" filterUnits="userSpaceOnUse" color-interpolation-filters="sRGB">
<feFlood flood-opacity="0" result="BackgroundImageFix"/>
<feBlend mode="normal" in="SourceGraphic" in2="BackgroundImageFix" result="shape"/>
<feColorMatrix in="SourceAlpha" type="matrix" values="0 0 0 0 0 0 0 0 0 0 0 0 0 0 0 0 0 0 127 0" result="hardAlpha"/>
<feOffset dx="2.38455" dy="5.56394"/>
<feGaussianBlur stdDeviation="5.96137"/>
<feComposite in2="hardAlpha" operator="arithmetic" k2="-1" k3="1"/>
<feColorMatrix type="matrix" values="0 0 0 0 0.104618 0 0 0 0 0.465612 0 0 0 0 0.545833 0 0 0 0.15 0"/>
<feBlend mode="normal" in2="shape" result="effect1_innerShadow_2902_1825"/>
</filter>
<filter id="filter3_i_2902_1825" x="121.873" y="76.0645" width="70.0341" height="36.3463" filterUnits="userSpaceOnUse" color-interpolation-filters="sRGB">
<feFlood flood-opacity="0" result="BackgroundImageFix"/>
<feBlend mode="normal" in="SourceGraphic" in2="BackgroundImageFix" result="shape"/>
<feColorMatrix in="SourceAlpha" type="matrix" values="0 0 0 0 0 0 0 0 0 0 0 0 0 0 0 0 0 0 127 0" result="hardAlpha"/>
<feOffset dx="5.62585" dy="3.75056"/>
<feGaussianBlur stdDeviation="6.09467"/>
<feComposite in2="hardAlpha" operator="arithmetic" k2="-1" k3="1"/>
<feColorMatrix type="matrix" values="0 0 0 0 0.104618 0 0 0 0 0.465612 0 0 0 0 0.545833 0 0 0 0.09 0"/>
<feBlend mode="normal" in2="shape" result="effect1_innerShadow_2902_1825"/>
</filter>
<linearGradient id="paint0_linear_2902_1825" x1="53.8859" y1="21.8321" x2="224.431" y2="60.1734" gradientUnits="userSpaceOnUse">
<stop stop-color="#A259FF"/>
<stop offset="1" stop-color="#3B3B3B"/>
</linearGradient>
<linearGradient id="paint1_linear_2902_1825" x1="174.13" y1="188.799" x2="123.999" y2="182.628" gradientUnits="userSpaceOnUse">
<stop stop-color="#A259FF" stop-opacity="0"/>
<stop offset="1" stop-color="#FF6250"/>
</linearGradient>
<linearGradient id="paint2_linear_2902_1825" x1="225.671" y1="74.4876" x2="239.221" y2="85.9814" gradientUnits="userSpaceOnUse">
<stop stop-color="#A259FF"/>
<stop offset="1" stop-color="#377DF7"/>
</linearGradient>
<linearGradient id="paint3_linear_2902_1825" x1="55.171" y1="205.278" x2="54.7582" y2="218.555" gradientUnits="userSpaceOnUse">
<stop stop-color="#A259FF"/>
<stop offset="1" stop-color="#377DF7"/>
</linearGradient>
<linearGradient id="paint4_linear_2902_1825" x1="210.449" y1="182.391" x2="224.763" y2="181.504" gradientUnits="userSpaceOnUse">
<stop stop-color="#A259FF"/>
<stop offset="1" stop-color="#377DF7"/>
</linearGradient>
<radialGradient id="paint5_radial_2902_1825" cx="0" cy="0" r="1" gradientUnits="userSpaceOnUse" gradientTransform="translate(130.748 206.13) rotate(90) scale(10.1188 63.9514)">
<stop stop-color="#2B2B2B"/>
<stop offset="1" stop-color="#2B2B2B" stop-opacity="0"/>
</radialGradient>
<linearGradient id="paint6_linear_2902_1825" x1="92.9858" y1="67.2312" x2="147.149" y2="65.4285" gradientUnits="userSpaceOnUse">
<stop stop-color="#A259FF"/>
<stop offset="1" stop-color="#3B3B3B"/>
</linearGradient>
<linearGradient id="paint7_linear_2902_1825" x1="127.732" y1="92.7" x2="124.639" y2="82.7959" gradientUnits="userSpaceOnUse">
<stop stop-color="#A259FF"/>
<stop offset="0.666667" stop-color="white"/>
</linearGradient>
<linearGradient id="paint8_linear_2902_1825" x1="132.686" y1="118.355" x2="129.718" y2="108.747" gradientUnits="userSpaceOnUse">
<stop stop-color="#A259FF"/>
<stop offset="0.666667" stop-color="white"/>
</linearGradient>
<linearGradient id="paint9_linear_2902_1825" x1="130.119" y1="104.885" x2="127.151" y2="95.2763" gradientUnits="userSpaceOnUse">
<stop stop-color="#A259FF"/>
<stop offset="0.666667" stop-color="white"/>
</linearGradient>
<linearGradient id="paint10_linear_2902_1825" x1="121.873" y1="115.982" x2="157.412" y2="58.3775" gradientUnits="userSpaceOnUse">
<stop stop-color="#A259FF"/>
<stop offset="1" stop-color="#FF6250"/>
</linearGradient>
<linearGradient id="paint11_linear_2902_1825" x1="153.279" y1="179.173" x2="141.556" y2="119.756" gradientUnits="userSpaceOnUse">
<stop stop-color="#A259FF"/>
<stop offset="0.666667" stop-color="white"/>
</linearGradient>
<linearGradient id="paint12_linear_2902_1825" x1="198.568" y1="124.351" x2="227.192" y2="160.333" gradientUnits="userSpaceOnUse">
<stop stop-color="#A259FF"/>
<stop offset="1" stop-color="#377DF7"/>
</linearGradient>
<linearGradient id="paint13_linear_2902_1825" x1="109.72" y1="188.154" x2="85.0109" y2="160.889" gradientUnits="userSpaceOnUse">
<stop stop-color="#A259FF"/>
<stop offset="0.666667" stop-color="white"/>
</linearGradient>
<linearGradient id="paint14_linear_2902_1825" x1="156.84" y1="159.178" x2="109.276" y2="56.7648" gradientUnits="userSpaceOnUse">
<stop stop-color="#A259FF"/>
<stop offset="0.666667" stop-color="white"/>
</linearGradient>
<linearGradient id="paint15_linear_2902_1825" x1="96.7282" y1="184.029" x2="113.361" y2="187.491" gradientUnits="userSpaceOnUse">
<stop stop-color="white"/>
<stop offset="1" stop-color="#BCF3FF"/>
</linearGradient>
<linearGradient id="paint16_linear_2902_1825" x1="82.4088" y1="122.765" x2="180.499" y2="142.752" gradientUnits="userSpaceOnUse">
<stop stop-color="#AFF1FF"/>
<stop offset="1" stop-color="#65C8DE"/>
</linearGradient>
<linearGradient id="paint17_linear_2902_1825" x1="164.053" y1="128.27" x2="165.43" y2="109.446" gradientUnits="userSpaceOnUse">
<stop stop-color="#A259FF"/>
<stop offset="0.666667" stop-color="white"/>
</linearGradient>
<clipPath id="clip0_2902_1825">
<rect width="270" height="250" fill="white" transform="translate(0 0.998047)"/>
</clipPath>
</defs>
</svg>
