<svg width="33" height="33" viewBox="0 0 33 33" fill="none" xmlns="http://www.w3.org/2000/svg">
<path fill-rule="evenodd" clip-rule="evenodd" d="M16.293 12.998C14.0838 12.998 12.293 14.7889 12.293 16.998C12.293 19.2072 14.0838 20.998 16.293 20.998C18.5021 20.998 20.293 19.2072 20.293 16.998C20.293 14.7889 18.5021 12.998 16.293 12.998ZM10.293 16.998C10.293 13.6843 12.9793 10.998 16.293 10.998C19.6067 10.998 22.293 13.6843 22.293 16.998C22.293 20.3118 19.6067 22.998 16.293 22.998C12.9793 22.998 10.293 20.3118 10.293 16.998Z" fill="#858584"/>
<path fill-rule="evenodd" clip-rule="evenodd" d="M10.793 6.49805C8.03154 6.49805 5.79297 8.73662 5.79297 11.498V22.498C5.79297 25.2595 8.03154 27.498 10.793 27.498H21.793C24.5544 27.498 26.793 25.2595 26.793 22.498V11.498C26.793 8.73662 24.5544 6.49805 21.793 6.49805H10.793ZM3.79297 11.498C3.79297 7.63205 6.92698 4.49805 10.793 4.49805H21.793C25.659 4.49805 28.793 7.63205 28.793 11.498V22.498C28.793 26.364 25.659 29.498 21.793 29.498H10.793C6.92698 29.498 3.79297 26.364 3.79297 22.498V11.498Z" fill="#858584"/>
<path d="M22.793 11.998C23.6214 11.998 24.293 11.3265 24.293 10.498C24.293 9.66962 23.6214 8.99805 22.793 8.99805C21.9645 8.99805 21.293 9.66962 21.293 10.498C21.293 11.3265 21.9645 11.998 22.793 11.998Z" fill="#858584"/>
</svg>
