<svg width="21" height="20" viewBox="0 0 21 20" fill="none" xmlns="http://www.w3.org/2000/svg">
<path fill-rule="evenodd" clip-rule="evenodd" d="M6.54553 12.4494C6.65555 12.7766 6.47951 13.131 6.15234 13.241C5.09292 13.5973 4.52989 14.4866 4.22873 15.391C4.10914 15.7501 4.03689 16.0958 3.99348 16.3817C4.27934 16.3383 4.62506 16.266 4.98417 16.1464C5.88855 15.8453 6.7779 15.2823 7.13416 14.2228C7.24418 13.8957 7.5986 13.7196 7.92578 13.8296C8.25295 13.9397 8.42899 14.2941 8.31896 14.6213C7.7846 16.2103 6.46301 16.9715 5.37911 17.3324C4.83155 17.5148 4.31895 17.6048 3.9448 17.6497C3.75682 17.6722 3.60141 17.6836 3.491 17.6894C3.43574 17.6924 3.39158 17.6939 3.36005 17.6946C3.34428 17.695 3.33166 17.6952 3.32237 17.6954L3.31096 17.6955L3.30717 17.6955L3.30577 17.6955L3.30519 17.6955C3.30493 17.6955 3.30469 17.6955 3.30469 17.0705C2.67969 17.0705 2.67969 17.0702 2.67969 17.07L2.67969 17.0694L2.67969 17.068L2.67971 17.0642L2.67981 17.0528C2.67993 17.0435 2.68014 17.0309 2.68053 17.0151C2.68131 16.9836 2.68282 16.9394 2.68572 16.8842C2.69153 16.7738 2.70297 16.6184 2.72552 16.4304C2.7704 16.0562 2.86042 15.5436 3.04276 14.9961C3.4037 13.9122 4.16489 12.5906 5.75391 12.0562C6.08108 11.9462 6.4355 12.1222 6.54553 12.4494ZM3.30469 17.0705H2.67969C2.67969 17.4157 2.95951 17.6955 3.30469 17.6955V17.0705Z" fill="white"/>
<path fill-rule="evenodd" clip-rule="evenodd" d="M16.9212 3.45406C16.1958 3.34943 14.4101 3.31002 12.5826 5.13753L7.71982 10.0003L10.375 12.6555L15.2377 7.79271C17.0653 5.9652 17.0258 4.17951 16.9212 3.45406ZM17.1025 2.21727C16.1048 2.07282 13.8808 2.07157 11.6987 4.25365L6.394 9.55834C6.27679 9.67555 6.21094 9.83452 6.21094 10.0003C6.21094 10.166 6.27679 10.325 6.394 10.4422L9.93306 13.9813C10.1771 14.2254 10.5729 14.2254 10.8169 13.9813L16.1216 8.67659C18.3037 6.49452 18.3025 4.27052 18.158 3.27282C18.1215 3.0058 17.9985 2.75803 17.8079 2.5674C17.6172 2.37678 17.3695 2.25382 17.1025 2.21727Z" fill="white"/>
<path fill-rule="evenodd" clip-rule="evenodd" d="M14.797 8.49219C15.1422 8.49219 15.422 8.77201 15.422 9.11719V14.1641L15.4219 14.173C15.4173 14.5013 15.2836 14.8145 15.05 15.045L12.5277 17.575C12.3676 17.7349 12.1671 17.8484 11.9475 17.9033C11.728 17.9582 11.4977 17.9524 11.2811 17.8867C11.0646 17.8209 10.87 17.6976 10.718 17.5299C10.5662 17.3623 10.4627 17.1567 10.4185 16.9349C10.4184 16.9347 10.4185 16.9351 10.4185 16.9349L9.76231 13.6619C9.69446 13.3235 9.91382 12.9941 10.2523 12.9263C10.5907 12.8584 10.9201 13.0778 10.9879 13.4162L11.6444 16.6906L14.172 14.1552V9.11719C14.172 8.77201 14.4518 8.49219 14.797 8.49219Z" fill="white"/>
<path fill-rule="evenodd" clip-rule="evenodd" d="M6.20125 4.95319L6.21015 4.95312H11.257C11.6022 4.95312 11.882 5.23295 11.882 5.57812C11.882 5.9233 11.6022 6.20312 11.257 6.20312H6.21899L6.21394 6.20828L6.21391 6.20825L3.68359 8.73075L3.68456 8.73094L6.958 9.38719C7.29644 9.45504 7.5158 9.78441 7.44795 10.1229C7.3801 10.4613 7.05074 10.6807 6.71229 10.6128L3.43983 9.95675C3.43964 9.95671 3.43945 9.95668 3.43926 9.95664C3.21752 9.91244 3.0119 9.80892 2.84433 9.65711C2.67662 9.50516 2.5533 9.31054 2.48754 9.094C2.42177 8.87746 2.41603 8.64712 2.47092 8.42757C2.52581 8.20802 2.63927 8.00749 2.7992 7.84738L2.80014 7.84644L2.80014 7.84644L5.32924 5.32514C5.55975 5.09151 5.87296 4.95786 6.20125 4.95319Z" fill="white"/>
</svg>
