<svg width="21" height="20" viewBox="0 0 21 20" fill="none" xmlns="http://www.w3.org/2000/svg">
<path fill-rule="evenodd" clip-rule="evenodd" d="M6.79553 12.4494C6.90555 12.7766 6.72951 13.131 6.40234 13.241C5.34292 13.5973 4.77989 14.4866 4.47873 15.391C4.35914 15.7501 4.28689 16.0958 4.24348 16.3817C4.52934 16.3383 4.87506 16.266 5.23417 16.1464C6.13855 15.8453 7.0279 15.2823 7.38416 14.2228C7.49418 13.8957 7.8486 13.7196 8.17578 13.8296C8.50295 13.9397 8.67899 14.2941 8.56896 14.6213C8.0346 16.2103 6.71301 16.9715 5.62911 17.3324C5.08155 17.5148 4.56895 17.6048 4.1948 17.6497C4.00682 17.6722 3.85141 17.6836 3.741 17.6894C3.68574 17.6924 3.64158 17.6939 3.61005 17.6946C3.59428 17.695 3.58166 17.6952 3.57237 17.6954L3.56096 17.6955L3.55717 17.6955L3.55577 17.6955L3.55519 17.6955C3.55493 17.6955 3.55469 17.6955 3.55469 17.0705C2.92969 17.0705 2.92969 17.0702 2.92969 17.07L2.92969 17.0694L2.92969 17.068L2.92971 17.0642L2.92981 17.0528C2.92993 17.0435 2.93014 17.0309 2.93053 17.0151C2.93131 16.9836 2.93282 16.9394 2.93572 16.8842C2.94153 16.7738 2.95297 16.6184 2.97552 16.4304C3.0204 16.0562 3.11042 15.5436 3.29276 14.9961C3.6537 13.9122 4.41489 12.5906 6.00391 12.0562C6.33108 11.9462 6.6855 12.1222 6.79553 12.4494ZM3.55469 17.0705H2.92969C2.92969 17.4157 3.20951 17.6955 3.55469 17.6955V17.0705Z" fill="#2B2B2B"/>
<path fill-rule="evenodd" clip-rule="evenodd" d="M17.1712 3.45406C16.4458 3.34943 14.6601 3.31002 12.8326 5.13753L7.96982 10.0003L10.625 12.6555L15.4877 7.79271C17.3153 5.9652 17.2758 4.17951 17.1712 3.45406ZM17.3525 2.21727C16.3548 2.07282 14.1308 2.07157 11.9487 4.25365L6.644 9.55834C6.52679 9.67555 6.46094 9.83452 6.46094 10.0003C6.46094 10.166 6.52679 10.325 6.644 10.4422L10.1831 13.9813C10.4271 14.2254 10.8229 14.2254 11.0669 13.9813L16.3716 8.67659C18.5537 6.49452 18.5525 4.27052 18.408 3.27282C18.3715 3.0058 18.2485 2.75803 18.0579 2.5674C17.8672 2.37678 17.6195 2.25382 17.3525 2.21727Z" fill="#2B2B2B"/>
<path fill-rule="evenodd" clip-rule="evenodd" d="M15.047 8.49219C15.3922 8.49219 15.672 8.77201 15.672 9.11719V14.1641L15.6719 14.173C15.6673 14.5013 15.5336 14.8145 15.3 15.045L12.7777 17.575C12.6176 17.7349 12.4171 17.8484 12.1975 17.9033C11.978 17.9582 11.7477 17.9524 11.5311 17.8867C11.3146 17.8209 11.12 17.6976 10.968 17.5299C10.8162 17.3623 10.7127 17.1567 10.6685 16.9349C10.6684 16.9347 10.6685 16.9351 10.6685 16.9349L10.0123 13.6619C9.94446 13.3235 10.1638 12.9941 10.5023 12.9263C10.8407 12.8584 11.1701 13.0778 11.2379 13.4162L11.8944 16.6906L14.422 14.1552V9.11719C14.422 8.77201 14.7018 8.49219 15.047 8.49219Z" fill="#2B2B2B"/>
<path fill-rule="evenodd" clip-rule="evenodd" d="M6.45125 4.95319L6.46015 4.95312H11.507C11.8522 4.95312 12.132 5.23295 12.132 5.57812C12.132 5.9233 11.8522 6.20312 11.507 6.20312H6.46899L6.46394 6.20828L6.46391 6.20825L3.93359 8.73075L3.93456 8.73094L7.208 9.38719C7.54644 9.45504 7.7658 9.78441 7.69795 10.1229C7.6301 10.4613 7.30074 10.6807 6.96229 10.6128L3.68983 9.95675C3.68964 9.95671 3.68945 9.95668 3.68926 9.95664C3.46752 9.91244 3.2619 9.80892 3.09433 9.65711C2.92662 9.50516 2.8033 9.31054 2.73754 9.094C2.67177 8.87746 2.66603 8.64712 2.72092 8.42757C2.77581 8.20802 2.88927 8.00749 3.0492 7.84738L3.05014 7.84644L3.05014 7.84644L5.57924 5.32514C5.80975 5.09151 6.12296 4.95786 6.45125 4.95319Z" fill="#2B2B2B"/>
</svg>
