<svg width="20" height="21" viewBox="0 0 20 21" fill="none" xmlns="http://www.w3.org/2000/svg">
<path fill-rule="evenodd" clip-rule="evenodd" d="M6.17053 13.4474C6.28055 13.7746 6.10451 14.129 5.77734 14.2391C4.71792 14.5953 4.15489 15.4847 3.85373 16.389C3.73414 16.7482 3.66189 17.0939 3.61848 17.3797C3.90434 17.3363 4.25006 17.2641 4.60917 17.1445C5.51355 16.8433 6.4029 16.2803 6.75916 15.2209C6.86918 14.8937 7.2236 14.7177 7.55078 14.8277C7.87795 14.9377 8.05399 15.2921 7.94396 15.6193C7.4096 17.2083 6.08801 17.9695 5.00411 18.3305C4.45655 18.5128 3.94395 18.6028 3.5698 18.6477C3.38182 18.6702 3.22641 18.6817 3.116 18.6875C3.06074 18.6904 3.01658 18.6919 2.98505 18.6927C2.96928 18.6931 2.95666 18.6933 2.94737 18.6934L2.93596 18.6935L2.93217 18.6935L2.93077 18.6935L2.93019 18.6935C2.92993 18.6935 2.92969 18.6935 2.92969 18.0685C2.30469 18.0685 2.30469 18.0683 2.30469 18.068L2.30469 18.0675L2.30469 18.066L2.30471 18.0623L2.30481 18.0508C2.30493 18.0416 2.30514 18.0289 2.30553 18.0132C2.30631 17.9816 2.30782 17.9375 2.31072 17.8822C2.31653 17.7718 2.32797 17.6164 2.35052 17.4284C2.3954 17.0543 2.48542 16.5417 2.66776 15.9941C3.0287 14.9102 3.78989 13.5886 5.37891 13.0543C5.70608 12.9442 6.0605 13.1203 6.17053 13.4474ZM2.92969 18.0685H2.30469C2.30469 18.4137 2.58451 18.6935 2.92969 18.6935V18.0685Z" fill="#A259FF"/>
<path fill-rule="evenodd" clip-rule="evenodd" d="M16.5462 4.45211C15.8208 4.34748 14.0351 4.30807 12.2076 6.13558L7.34482 10.9983L10 13.6535L14.8627 8.79076C16.6903 6.96325 16.6508 5.17756 16.5462 4.45211ZM16.7275 3.21532C15.7298 3.07087 13.5058 3.06962 11.3237 5.25169L6.019 10.5564C5.90179 10.6736 5.83594 10.8326 5.83594 10.9983C5.83594 11.1641 5.90179 11.3231 6.019 11.4403L9.55806 14.9793C9.80214 15.2234 10.1979 15.2234 10.4419 14.9793L15.7466 9.67464C17.9287 7.49256 17.9275 5.26857 17.783 4.27087C17.7465 4.00384 17.6235 3.75608 17.4329 3.56545C17.2422 3.37482 16.9945 3.25187 16.7275 3.21532Z" fill="#A259FF"/>
<path fill-rule="evenodd" clip-rule="evenodd" d="M14.422 9.49023C14.7672 9.49023 15.047 9.77006 15.047 10.1152V15.1621L15.0469 15.171C15.0423 15.4993 14.9086 15.8125 14.675 16.043L12.1527 18.5731C11.9926 18.733 11.7921 18.8465 11.5725 18.9013C11.353 18.9562 11.1227 18.9505 10.9061 18.8847C10.6896 18.819 10.495 18.6956 10.343 18.5279C10.1912 18.3603 10.0877 18.1547 10.0435 17.9329C10.0434 17.9328 10.0435 17.9331 10.0435 17.9329L9.38731 14.66C9.31946 14.3215 9.53882 13.9922 9.87727 13.9243C10.2157 13.8565 10.5451 14.0758 10.6129 14.4143L11.2694 17.6887L13.797 15.1532V10.1152C13.797 9.77006 14.0768 9.49023 14.422 9.49023Z" fill="#A259FF"/>
<path fill-rule="evenodd" clip-rule="evenodd" d="M5.82625 5.95124L5.83515 5.95117H10.882C11.2272 5.95117 11.507 6.23099 11.507 6.57617C11.507 6.92135 11.2272 7.20117 10.882 7.20117H5.84399L5.83894 7.20633L5.83891 7.2063L3.30859 9.7288L3.30956 9.72899L6.583 10.3852C6.92144 10.4531 7.1408 10.7825 7.07295 11.1209C7.0051 11.4593 6.67574 11.6787 6.33729 11.6109L3.06483 10.9548C3.06464 10.9548 3.06445 10.9547 3.06426 10.9547C2.84252 10.9105 2.6369 10.807 2.46933 10.6552C2.30162 10.5032 2.1783 10.3086 2.11254 10.092C2.04677 9.8755 2.04103 9.64517 2.09592 9.42562C2.15081 9.20607 2.26427 9.00554 2.4242 8.84542L2.42514 8.84448L2.42514 8.84449L4.95424 6.32319C5.18475 6.08955 5.49796 5.95591 5.82625 5.95124Z" fill="#A259FF"/>
</svg>
