<svg width="100" height="101" viewBox="0 0 100 101" fill="none" xmlns="http://www.w3.org/2000/svg">
<path d="M9.375 24.4355H59.375C62.6902 24.4355 65.8696 25.7525 68.2138 28.0967C70.558 30.4409 71.875 33.6203 71.875 36.9355V74.4355C71.875 75.2643 71.5458 76.0592 70.9597 76.6453C70.3737 77.2313 69.5788 77.5605 68.75 77.5605H18.75C15.4348 77.5605 12.2554 76.2436 9.91117 73.8994C7.56696 71.5552 6.25 68.3758 6.25 65.0605V27.5605C6.25 26.7317 6.57924 25.9369 7.16529 25.3508C7.75134 24.7648 8.5462 24.4355 9.375 24.4355V24.4355Z" stroke="white" stroke-width="3" stroke-linecap="round" stroke-linejoin="round"/>
<path d="M71.875 44.748L93.75 32.248V69.748L71.875 57.248" stroke="white" stroke-width="3" stroke-linecap="round" stroke-linejoin="round"/>
</svg>
