<svg width="20" height="20" viewBox="0 0 20 20" fill="none" xmlns="http://www.w3.org/2000/svg">
<path fill-rule="evenodd" clip-rule="evenodd" d="M4.375 4.375C4.20924 4.375 4.05027 4.44085 3.93306 4.55806C3.81585 4.67527 3.75 4.83424 3.75 5C3.75 5.16576 3.81585 5.32473 3.93306 5.44194C4.05027 5.55915 4.20924 5.625 4.375 5.625H16.875C17.2065 5.625 17.5245 5.7567 17.7589 5.99112C17.9933 6.22554 18.125 6.54348 18.125 6.875V15.625C18.125 15.9565 17.9933 16.2745 17.7589 16.5089C17.5245 16.7433 17.2065 16.875 16.875 16.875H4.375C3.87772 16.875 3.40081 16.6775 3.04917 16.3258C2.69754 15.9742 2.5 15.4973 2.5 15V5C2.5 4.50272 2.69754 4.02581 3.04917 3.67417C3.40081 3.32254 3.87772 3.125 4.375 3.125H15C15.3452 3.125 15.625 3.40482 15.625 3.75C15.625 4.09518 15.3452 4.375 15 4.375H4.375ZM3.75 6.76777V15C3.75 15.1658 3.81585 15.3247 3.93306 15.4419C4.05027 15.5592 4.20924 15.625 4.375 15.625H16.875V6.875H4.375C4.16004 6.875 3.94888 6.83809 3.75 6.76777Z" fill="white"/>
<path d="M14.0625 12.1875C14.5803 12.1875 15 11.7678 15 11.25C15 10.7322 14.5803 10.3125 14.0625 10.3125C13.5447 10.3125 13.125 10.7322 13.125 11.25C13.125 11.7678 13.5447 12.1875 14.0625 12.1875Z" fill="white"/>
</svg>
