<svg width="33" height="33" viewBox="0 0 33 33" fill="none" xmlns="http://www.w3.org/2000/svg">
<path fill-rule="evenodd" clip-rule="evenodd" d="M13.8211 12.1164C14.1463 11.9424 14.5408 11.9614 14.8477 12.166L20.8477 16.166C21.1259 16.3515 21.293 16.6637 21.293 16.998C21.293 17.3324 21.1259 17.6446 20.8477 17.8301L14.8477 21.8301C14.5408 22.0347 14.1463 22.0537 13.8211 21.8797C13.496 21.7057 13.293 21.3668 13.293 20.998V12.998C13.293 12.6293 13.496 12.2904 13.8211 12.1164ZM15.293 14.8666V19.1295L18.4902 16.998L15.293 14.8666Z" fill="#858584"/>
<path fill-rule="evenodd" clip-rule="evenodd" d="M16.2915 6.04887L16.2746 6.04883L16.2118 6.04886C16.1573 6.04898 16.0779 6.04937 15.9761 6.05046C15.7724 6.05262 15.4786 6.05752 15.1136 6.06848C14.3841 6.09037 13.3675 6.13651 12.2167 6.23368C9.9403 6.42587 7.04225 6.82473 4.81105 7.67725L4.79635 7.683C4.35808 7.85843 3.96717 8.13442 3.65515 8.48868C3.34313 8.84295 3.11874 9.26559 3.00008 9.72252L2.99911 9.72629C2.6877 10.9448 2.29297 13.2045 2.29297 16.9989C2.29297 20.7932 2.6877 23.0529 2.99911 24.2715L3.00008 24.2753C3.11874 24.7322 3.34313 25.1548 3.65515 25.5091C3.96717 25.8634 4.35807 26.1393 4.79635 26.3148L4.81105 26.3205C7.04225 27.173 9.9403 27.5719 12.2167 27.7641C13.3675 27.8613 14.3841 27.9074 15.1136 27.9293C15.4786 27.9403 15.7724 27.9452 15.9761 27.9473C16.0779 27.9484 16.1573 27.9488 16.2118 27.9489L16.2746 27.9489L16.2915 27.9489H16.2945L16.3113 27.9489L16.3741 27.9489C16.4286 27.9488 16.508 27.9484 16.6099 27.9473C16.8135 27.9452 17.1074 27.9403 17.4724 27.9293C18.2018 27.9074 19.2184 27.8613 20.3693 27.7641C22.6456 27.5719 25.5437 27.173 27.7749 26.3205L27.7896 26.3148C28.2279 26.1393 28.6188 25.8634 28.9308 25.5091C29.2428 25.1548 29.4672 24.7322 29.5859 24.2753L29.5868 24.2715C29.8982 23.0529 30.293 20.7932 30.293 16.9989C30.293 13.2045 29.8982 10.9448 29.5868 9.72629L29.5859 9.72252C29.4672 9.26559 29.2428 8.84295 28.9308 8.48868C28.6188 8.13442 28.2279 7.85843 27.7896 7.683L27.7749 7.67725C25.5437 6.82473 22.6456 6.42587 20.3693 6.23368C19.2184 6.13651 18.2018 6.09037 17.4724 6.06848C17.1074 6.05752 16.8135 6.05262 16.6099 6.05046C16.508 6.04937 16.4286 6.04898 16.3741 6.04886L16.3113 6.04883L16.2945 6.04887H16.2915ZM16.2877 25.9489L16.2984 25.9488L16.3016 25.9489L16.3147 25.9489L16.3697 25.9489C16.4188 25.9488 16.4926 25.9484 16.5886 25.9474C16.7807 25.9454 17.0616 25.9407 17.4124 25.9302C18.1146 25.9091 19.0941 25.8646 20.201 25.7712C22.4371 25.5824 25.0971 25.2008 27.0526 24.4555C27.1974 24.3964 27.3265 24.3046 27.4299 24.1872C27.5344 24.0685 27.6097 23.9271 27.6497 23.7741C27.9132 22.7419 28.293 20.6519 28.293 16.9989C28.293 13.3458 27.9132 11.2559 27.6497 10.2237C27.6097 10.0707 27.5344 9.92922 27.4299 9.81056C27.3265 9.69317 27.1974 9.60136 27.0526 9.54229C25.0971 8.79693 22.4371 8.41538 20.201 8.22659C19.0941 8.13313 18.1146 8.08865 17.4124 8.06758C17.0616 8.05705 16.7807 8.05238 16.5886 8.05034C16.4926 8.04932 16.4188 8.04896 16.3697 8.04885L16.3147 8.04883L16.3016 8.04886L16.2987 8.04887L16.2876 8.04893L16.2844 8.04886L16.2713 8.04883L16.2163 8.04885C16.1671 8.04896 16.0933 8.04932 15.9973 8.05034C15.8052 8.05238 15.5244 8.05705 15.1736 8.06758C14.4713 8.08865 13.4918 8.13313 12.3849 8.22659C10.1489 8.41538 7.48887 8.79694 5.53336 9.54229C5.38858 9.60136 5.25942 9.69317 5.15603 9.81056C5.05152 9.92922 4.97626 10.0707 4.93627 10.2237C4.6727 11.2559 4.29297 13.3458 4.29297 16.9989C4.29297 20.6519 4.6727 22.7419 4.93627 23.7741C4.97626 23.9271 5.05152 24.0685 5.15603 24.1872C5.25942 24.3046 5.38857 24.3964 5.53335 24.4555C7.48886 25.2008 10.1489 25.5824 12.3849 25.7712C13.4918 25.8646 14.4713 25.9091 15.1736 25.9302C15.5244 25.9407 15.8052 25.9454 15.9973 25.9474C16.0933 25.9484 16.1671 25.9488 16.2163 25.9489L16.2713 25.9489L16.2844 25.9489L16.2877 25.9489Z" fill="#858584"/>
</svg>
