<svg width="21" height="20" viewBox="0 0 21 20" fill="none" xmlns="http://www.w3.org/2000/svg">
<path fill-rule="evenodd" clip-rule="evenodd" d="M2.58203 4.375C2.58203 4.02982 2.86185 3.75 3.20703 3.75H18.207C18.5522 3.75 18.832 4.02982 18.832 4.375V15C18.832 15.3315 18.7003 15.6495 18.4659 15.8839C18.2315 16.1183 17.9135 16.25 17.582 16.25H3.83203C3.50051 16.25 3.18257 16.1183 2.94815 15.8839C2.71373 15.6495 2.58203 15.3315 2.58203 15V4.375ZM3.83203 5V15H17.582V5H3.83203Z" fill="white"/>
<path fill-rule="evenodd" clip-rule="evenodd" d="M2.74631 3.95268C2.97956 3.69823 3.37491 3.68104 3.62936 3.91428L10.707 10.4021L17.7847 3.91428C18.0392 3.68104 18.4345 3.69823 18.6678 3.95268C18.901 4.20713 18.8838 4.60248 18.6294 4.83573L11.1294 11.7107C10.8904 11.9298 10.5237 11.9298 10.2847 11.7107L2.78471 4.83573C2.53026 4.60248 2.51307 4.20713 2.74631 3.95268Z" fill="white"/>
</svg>
