<svg width="20" height="21" viewBox="0 0 20 21" fill="none" xmlns="http://www.w3.org/2000/svg">
<path fill-rule="evenodd" clip-rule="evenodd" d="M2.83931 7.74361C4.3292 6.25371 6.66714 4.74805 10 4.74805C13.3329 4.74805 15.6708 6.25371 17.1607 7.74361C17.9038 8.48675 18.4397 9.22881 18.7906 9.78613C18.9664 10.0653 19.0966 10.2995 19.184 10.4663C19.2277 10.5498 19.2608 10.6165 19.2835 10.6637C19.2949 10.6873 19.3037 10.7061 19.3099 10.7196L19.3174 10.7359L19.3197 10.7411L19.3206 10.7429L19.3209 10.7436C19.321 10.7439 19.3211 10.7442 18.75 10.998C19.3211 11.2519 19.321 11.2522 19.3209 11.2525L19.3206 11.2532L19.3197 11.255L19.3174 11.2601L19.3099 11.2765C19.3037 11.29 19.2949 11.3087 19.2835 11.3324C19.2608 11.3796 19.2277 11.4463 19.184 11.5298C19.0966 11.6966 18.9664 11.9308 18.7906 12.21C18.4397 12.7673 17.9038 13.5093 17.1607 14.2525C15.6708 15.7424 13.3329 17.248 10 17.248C6.66714 17.248 4.3292 15.7424 2.83931 14.2525C2.09617 13.5093 1.5603 12.7673 1.20939 12.21C1.03362 11.9308 0.903373 11.6966 0.815984 11.5298C0.772267 11.4463 0.739205 11.3796 0.716476 11.3324C0.705109 11.3087 0.696319 11.29 0.690066 11.2765L0.682582 11.2601L0.680256 11.255L0.679445 11.2532L0.679127 11.2525C0.678993 11.2522 0.678868 11.2519 1.25 10.998C0.678868 10.7442 0.678993 10.7439 0.679127 10.7436L0.679445 10.7429L0.680256 10.7411L0.682582 10.7359L0.690066 10.7196C0.696319 10.7061 0.705109 10.6873 0.716476 10.6637C0.739205 10.6165 0.772267 10.5498 0.815984 10.4663C0.903373 10.2995 1.03362 10.0653 1.20939 9.78613C1.5603 9.22881 2.09617 8.48675 2.83931 7.74361ZM1.25 10.998L0.678868 10.7442C0.607044 10.9058 0.607044 11.0903 0.678868 11.2519L1.25 10.998ZM1.94882 10.998C2.02235 11.1358 2.12794 11.3228 2.26718 11.5439C2.58033 12.0413 3.06008 12.7055 3.72319 13.3686C5.0458 14.6912 7.08286 15.998 10 15.998C12.9171 15.998 14.9542 14.6912 16.2768 13.3686C16.9399 12.7055 17.4197 12.0413 17.7328 11.5439C17.8721 11.3228 17.9777 11.1358 18.0512 10.998C17.9777 10.8603 17.8721 10.6733 17.7328 10.4521C17.4197 9.95479 16.9399 9.2906 16.2768 8.62749C14.9542 7.30488 12.9171 5.99805 10 5.99805C7.08286 5.99805 5.0458 7.30488 3.72319 8.62749C3.06008 9.2906 2.58033 9.95479 2.26718 10.4521C2.12794 10.6733 2.02235 10.8603 1.94882 10.998ZM18.75 10.998L19.3211 11.2519C19.393 11.0903 19.393 10.9058 19.3211 10.7442L18.75 10.998Z" fill="#A259FF"/>
<path fill-rule="evenodd" clip-rule="evenodd" d="M10 8.49805C8.61929 8.49805 7.5 9.61733 7.5 10.998C7.5 12.3788 8.61929 13.498 10 13.498C11.3807 13.498 12.5 12.3788 12.5 10.998C12.5 9.61733 11.3807 8.49805 10 8.49805ZM6.25 10.998C6.25 8.92698 7.92893 7.24805 10 7.24805C12.0711 7.24805 13.75 8.92698 13.75 10.998C13.75 13.0691 12.0711 14.748 10 14.748C7.92893 14.748 6.25 13.0691 6.25 10.998Z" fill="#A259FF"/>
</svg>
