<svg width="270" height="251" viewBox="0 0 270 251" fill="none" xmlns="http://www.w3.org/2000/svg">
<g clip-path="url(#clip0_2902_1798)">
<path d="M135 230.165C197.132 230.165 247.5 183.529 247.5 125.999C247.5 68.4691 197.132 21.832 135 21.832C72.8679 21.832 22.5 68.4691 22.5 125.999C22.5 183.529 72.8679 230.165 135 230.165Z" fill="url(#paint0_linear_2902_1798)"/>
<g filter="url(#filter0_f_2902_1798)">
<path d="M135 202.084C180.384 202.084 217.174 168.019 217.174 125.997C217.174 83.9755 180.384 49.9102 135 49.9102C89.6167 49.9102 52.8262 83.9755 52.8262 125.997C52.8262 168.019 89.6167 202.084 135 202.084Z" fill="url(#paint1_linear_2902_1798)"/>
</g>
<path fill-rule="evenodd" clip-rule="evenodd" d="M81.29 47.7186C83.1722 47.7186 84.698 46.3059 84.698 44.5631C84.698 42.8205 83.1722 41.4077 81.29 41.4077C79.408 41.4077 77.8822 42.8205 77.8822 44.5631C77.8822 46.3059 79.408 47.7186 81.29 47.7186ZM81.29 50.0853C84.5838 50.0853 87.254 47.6129 87.254 44.5631C87.254 41.5134 84.5838 39.041 81.29 39.041C77.9963 39.041 75.3262 41.5134 75.3262 44.5631C75.3262 47.6129 77.9963 50.0853 81.29 50.0853Z" fill="white"/>
<path fill-rule="evenodd" clip-rule="evenodd" d="M49.9854 180.871C51.8675 180.871 53.3933 179.458 53.3933 177.715C53.3933 175.972 51.8675 174.56 49.9854 174.56C48.1033 174.56 46.5775 175.972 46.5775 177.715C46.5775 179.458 48.1033 180.871 49.9854 180.871ZM49.9854 183.238C53.2792 183.238 55.9493 180.765 55.9493 177.715C55.9493 174.665 53.2792 172.193 49.9854 172.193C46.6916 172.193 44.0215 174.665 44.0215 177.715C44.0215 180.765 46.6916 183.238 49.9854 183.238Z" fill="white"/>
<path fill-rule="evenodd" clip-rule="evenodd" d="M221.18 92.1033C223.062 92.1033 224.589 90.6906 224.589 88.9479C224.589 87.2052 223.062 85.7924 221.18 85.7924C219.298 85.7924 217.773 87.2052 217.773 88.9479C217.773 90.6906 219.298 92.1033 221.18 92.1033ZM221.18 94.4702C224.474 94.4702 227.145 91.9973 227.145 88.9479C227.145 85.8982 224.474 83.4258 221.18 83.4258C217.886 83.4258 215.217 85.8982 215.217 88.9479C215.217 91.9973 217.886 94.4702 221.18 94.4702Z" fill="white"/>
<path d="M42.4479 48.27C42.6985 47.3085 44.1756 47.3085 44.4262 48.27L45.2699 51.506C45.3595 51.8496 45.6493 52.1179 46.0203 52.2008L49.5153 52.982C50.5537 53.2141 50.5537 54.5817 49.5153 54.8138L46.0203 55.595C45.6493 55.6779 45.3595 55.9461 45.2699 56.2898L44.4262 59.5258C44.1756 60.4873 42.6985 60.4873 42.4479 59.5258L41.6043 56.2898C41.5146 55.9461 41.225 55.6779 40.8538 55.595L37.3589 54.8138C36.3205 54.5817 36.3205 53.2141 37.3589 52.982L40.8538 52.2008C41.225 52.1179 41.5146 51.8496 41.6043 51.506L42.4479 48.27Z" fill="white"/>
<path d="M224.309 47.7299C224.583 46.676 226.202 46.676 226.477 47.7299L227.403 51.277C227.5 51.6536 227.818 51.9477 228.224 52.0387L232.055 52.8949C233.194 53.1493 233.194 54.6484 232.055 54.9028L228.224 55.759C227.818 55.85 227.5 56.144 227.403 56.5206L226.477 60.0678C226.202 61.1217 224.583 61.1217 224.309 60.0678L223.384 56.5206C223.286 56.144 222.968 55.85 222.561 55.759L218.73 54.9028C217.593 54.6484 217.593 53.1493 218.73 52.8949L222.561 52.0387C222.968 51.9477 223.286 51.6536 223.384 51.277L224.309 47.7299Z" fill="url(#paint2_linear_2902_1798)"/>
<path d="M53.8343 201.394C55.1295 201.202 56.1635 202.379 55.6955 203.514L52.5367 211.173C52.0687 212.308 50.4497 212.548 49.6225 211.605L44.0387 205.242C43.2113 204.3 43.7963 202.882 45.0916 202.69L53.8343 201.394Z" fill="url(#paint3_linear_2902_1798)"/>
<path d="M209.326 180.353C209.002 179.175 210.175 178.115 211.438 178.443L219.963 180.662C221.225 180.99 221.631 182.461 220.691 183.309L214.355 189.036C213.416 189.884 211.838 189.473 211.513 188.296L209.326 180.353Z" fill="url(#paint4_linear_2902_1798)"/>
<path d="M178.542 140.367L102.583 114.768C96.7599 112.806 90.3219 115.586 88.2027 120.977L70.2714 166.593C68.1522 171.984 71.1543 177.945 76.9768 179.907L152.937 205.507C158.759 207.469 165.197 204.689 167.316 199.298L185.248 153.682C187.367 148.29 184.364 142.329 178.542 140.367Z" fill="url(#paint5_linear_2902_1798)"/>
<path d="M149.913 130.68C148.54 132.432 145.903 132.819 144.011 131.548C142.119 130.277 141.701 127.835 143.074 126.083C144.447 124.331 147.084 123.944 148.976 125.215C150.867 126.487 151.286 128.929 149.913 130.68Z" fill="url(#paint6_linear_2902_1798)"/>
<path d="M162.399 114.726L159.788 112.973L147.32 128.892L149.931 130.646L162.399 114.726Z" fill="url(#paint7_linear_2902_1798)"/>
<path d="M164.585 133.504C163.211 135.256 160.574 135.644 158.683 134.372C156.791 133.101 156.372 130.659 157.746 128.907C159.118 127.155 161.756 126.768 163.648 128.04C165.54 129.311 165.958 131.753 164.585 133.504Z" fill="url(#paint8_linear_2902_1798)"/>
<path d="M177.096 117.542L174.486 115.789L162.02 131.71L164.631 133.463L177.096 117.542Z" fill="url(#paint9_linear_2902_1798)"/>
<path d="M177.062 117.582L158.129 115.1L159.792 112.969L178.722 115.459L177.062 117.582Z" fill="url(#paint10_linear_2902_1798)"/>
<path d="M173.919 121.594L154.984 119.112L156.647 116.98L175.587 119.473L173.919 121.594Z" fill="url(#paint11_linear_2902_1798)"/>
<path d="M158.842 88.2541L152.271 60.0658C150.964 54.4577 144.993 50.8927 138.937 52.1032L99.1275 60.0592C93.0711 61.2696 89.221 66.7971 90.5283 72.4052L97.0993 100.594C98.4066 106.201 104.376 109.767 110.433 108.556L150.242 100.6C156.299 99.3897 160.149 93.8625 158.842 88.2541Z" fill="url(#paint12_linear_2902_1798)"/>
<path d="M158.324 85.3555L136.009 68.7656L127.382 84.5141L118.294 79.6628L105.729 95.8577L96.3047 97.7381L96.7534 99.691C98.268 106.174 105.168 110.298 112.169 108.895L148.822 101.571C155.823 100.169 160.277 93.7807 158.762 87.2981L158.314 85.3555H158.324Z" fill="url(#paint13_linear_2902_1798)"/>
<path opacity="0.9" d="M105.503 77.7831C108.992 77.7 111.247 74.4589 109.889 71.4879C109.126 69.8258 107.298 68.735 105.345 68.7765C101.857 68.8597 99.6009 72.1008 100.959 75.0718C101.722 76.7339 103.55 77.8246 105.503 77.7831Z" fill="white"/>
<path d="M166.141 197.627C164.589 203.671 157.693 207.11 151.389 204.985L75.5712 179.433C70.2188 177.63 67.1756 172.399 68.4938 167.268L79.2605 125.362C80.8131 119.318 87.7083 115.879 94.0123 118.004L169.83 143.556C175.183 145.359 178.226 150.59 176.908 155.721L166.141 197.627Z" fill="url(#paint14_linear_2902_1798)"/>
</g>
<defs>
<filter id="filter0_f_2902_1798" x="-1.17383" y="-4.08984" width="272.348" height="260.174" filterUnits="userSpaceOnUse" color-interpolation-filters="sRGB">
<feFlood flood-opacity="0" result="BackgroundImageFix"/>
<feBlend mode="normal" in="SourceGraphic" in2="BackgroundImageFix" result="shape"/>
<feGaussianBlur stdDeviation="27" result="effect1_foregroundBlur_2902_1798"/>
</filter>
<linearGradient id="paint0_linear_2902_1798" x1="53.8859" y1="21.832" x2="224.431" y2="60.1734" gradientUnits="userSpaceOnUse">
<stop stop-color="#A259FF"/>
<stop offset="1" stop-color="#3B3B3B"/>
</linearGradient>
<linearGradient id="paint1_linear_2902_1798" x1="229.891" y1="138.678" x2="175.514" y2="239.908" gradientUnits="userSpaceOnUse">
<stop stop-color="#A259FF" stop-opacity="0"/>
<stop offset="1" stop-color="#FF6250"/>
</linearGradient>
<linearGradient id="paint2_linear_2902_1798" x1="228.607" y1="50.0325" x2="242.156" y2="61.5263" gradientUnits="userSpaceOnUse">
<stop stop-color="#A259FF"/>
<stop offset="1" stop-color="#377DF7"/>
</linearGradient>
<linearGradient id="paint3_linear_2902_1798" x1="55.17" y1="205.278" x2="54.7572" y2="218.555" gradientUnits="userSpaceOnUse">
<stop stop-color="#A259FF"/>
<stop offset="1" stop-color="#377DF7"/>
</linearGradient>
<linearGradient id="paint4_linear_2902_1798" x1="213.383" y1="178.768" x2="227.697" y2="177.881" gradientUnits="userSpaceOnUse">
<stop stop-color="#A259FF"/>
<stop offset="1" stop-color="#377DF7"/>
</linearGradient>
<linearGradient id="paint5_linear_2902_1798" x1="155.62" y1="149.035" x2="192.326" y2="243.78" gradientUnits="userSpaceOnUse">
<stop stop-color="#A259FF"/>
<stop offset="0.416667" stop-color="#A259FF" stop-opacity="0"/>
</linearGradient>
<linearGradient id="paint6_linear_2902_1798" x1="156.549" y1="112.551" x2="163.574" y2="128.531" gradientUnits="userSpaceOnUse">
<stop stop-color="#3B3B3B"/>
<stop offset="1" stop-color="#A259FF"/>
</linearGradient>
<linearGradient id="paint7_linear_2902_1798" x1="184.735" y1="85.8323" x2="191.238" y2="92.7272" gradientUnits="userSpaceOnUse">
<stop stop-color="#3B3B3B"/>
<stop offset="1" stop-color="#A259FF"/>
</linearGradient>
<linearGradient id="paint8_linear_2902_1798" x1="171.221" y1="115.376" x2="178.245" y2="131.356" gradientUnits="userSpaceOnUse">
<stop stop-color="#3B3B3B"/>
<stop offset="1" stop-color="#A259FF"/>
</linearGradient>
<linearGradient id="paint9_linear_2902_1798" x1="199.427" y1="88.644" x2="205.932" y2="95.5383" gradientUnits="userSpaceOnUse">
<stop stop-color="#3B3B3B"/>
<stop offset="1" stop-color="#A259FF"/>
</linearGradient>
<linearGradient id="paint10_linear_2902_1798" x1="181.497" y1="104.5" x2="181.25" y2="122.805" gradientUnits="userSpaceOnUse">
<stop stop-color="#3B3B3B"/>
<stop offset="1" stop-color="#A259FF"/>
</linearGradient>
<linearGradient id="paint11_linear_2902_1798" x1="178.36" y1="108.515" x2="178.112" y2="126.82" gradientUnits="userSpaceOnUse">
<stop stop-color="#3B3B3B"/>
<stop offset="1" stop-color="#A259FF"/>
</linearGradient>
<linearGradient id="paint12_linear_2902_1798" x1="133.6" y1="59.7802" x2="144.626" y2="98.7019" gradientUnits="userSpaceOnUse">
<stop stop-color="#FF7262"/>
<stop offset="1" stop-color="#A259FF"/>
</linearGradient>
<linearGradient id="paint13_linear_2902_1798" x1="124.625" y1="124.186" x2="112.678" y2="76.5261" gradientUnits="userSpaceOnUse">
<stop stop-color="#A259FF"/>
<stop offset="1" stop-color="white"/>
</linearGradient>
<linearGradient id="paint14_linear_2902_1798" x1="147.977" y1="184.698" x2="101.856" y2="57.9637" gradientUnits="userSpaceOnUse">
<stop stop-color="#A259FF"/>
<stop offset="0.666667" stop-color="white"/>
</linearGradient>
<clipPath id="clip0_2902_1798">
<rect width="270" height="250" fill="white" transform="translate(0 0.998047)"/>
</clipPath>
</defs>
</svg>
