<svg width="270" height="251" viewBox="0 0 270 251" fill="none" xmlns="http://www.w3.org/2000/svg">
<g clip-path="url(#clip0_2902_1750)">
<path d="M135 230.165C197.132 230.165 247.5 183.529 247.5 125.999C247.5 68.4691 197.132 21.832 135 21.832C72.8679 21.832 22.5 68.4691 22.5 125.999C22.5 183.529 72.8679 230.165 135 230.165Z" fill="url(#paint0_linear_2902_1750)"/>
<g filter="url(#filter0_f_2902_1750)">
<path d="M135 202.084C180.384 202.084 217.174 168.019 217.174 125.997C217.174 83.9755 180.384 49.9102 135 49.9102C89.6167 49.9102 52.8262 83.9755 52.8262 125.997C52.8262 168.019 89.6167 202.084 135 202.084Z" fill="url(#paint1_linear_2902_1750)"/>
</g>
<path fill-rule="evenodd" clip-rule="evenodd" d="M127.268 41.3788C129.15 41.3788 130.676 39.966 130.676 38.2233C130.676 36.4806 129.15 35.0678 127.268 35.0678C125.386 35.0678 123.861 36.4806 123.861 38.2233C123.861 39.966 125.386 41.3788 127.268 41.3788ZM127.268 43.7455C130.562 43.7455 133.233 41.2731 133.233 38.2233C133.233 35.1735 130.562 32.7012 127.268 32.7012C123.974 32.7012 121.305 35.1735 121.305 38.2233C121.305 41.2731 123.974 43.7455 127.268 43.7455Z" fill="white"/>
<path fill-rule="evenodd" clip-rule="evenodd" d="M46.0723 186.306C47.9544 186.306 49.4802 184.893 49.4802 183.151C49.4802 181.408 47.9544 179.996 46.0723 179.996C44.1902 179.996 42.6644 181.408 42.6644 183.151C42.6644 184.893 44.1902 186.306 46.0723 186.306ZM46.0723 188.673C49.3661 188.673 52.0362 186.2 52.0362 183.151C52.0362 180.101 49.3661 177.629 46.0723 177.629C42.7786 177.629 40.1084 180.101 40.1084 183.151C40.1084 186.2 42.7786 188.673 46.0723 188.673Z" fill="white"/>
<path fill-rule="evenodd" clip-rule="evenodd" d="M232.921 179.06C234.804 179.06 236.33 177.647 236.33 175.905C236.33 174.162 234.804 172.75 232.921 172.75C231.039 172.75 229.514 174.162 229.514 175.905C229.514 177.647 231.039 179.06 232.921 179.06ZM232.921 181.427C236.215 181.427 238.886 178.954 238.886 175.905C238.886 172.855 236.215 170.383 232.921 170.383C229.628 170.383 226.958 172.855 226.958 175.905C226.958 178.954 229.628 181.427 232.921 181.427Z" fill="white"/>
<path d="M71.7956 55.516C72.0462 54.5545 73.5233 54.5545 73.7739 55.516L74.6176 58.7521C74.7072 59.0957 74.9969 59.364 75.368 59.4469L78.8629 60.2281C79.9013 60.4602 79.9013 61.8278 78.8629 62.0599L75.368 62.841C74.9969 62.924 74.7072 63.1922 74.6176 63.5359L73.7739 66.7719C73.5233 67.7334 72.0462 67.7334 71.7956 66.7719L70.9519 63.5359C70.8623 63.1922 70.5726 62.924 70.2015 62.841L66.7066 62.0599C65.6681 61.8278 65.6681 60.4602 66.7066 60.2281L70.2015 59.4469C70.5726 59.364 70.8623 59.0957 70.9519 58.7521L71.7956 55.516Z" fill="white"/>
<path d="M216.485 197.185C216.76 196.131 218.379 196.131 218.654 197.185L219.578 200.732C219.676 201.109 219.994 201.403 220.401 201.493L224.232 202.35C225.369 202.604 225.369 204.103 224.232 204.358L220.401 205.215C219.994 205.305 219.676 205.599 219.578 205.975L218.654 209.522C218.379 210.577 216.76 210.577 216.485 209.522L215.559 205.975C215.462 205.599 215.144 205.305 214.738 205.215L210.907 204.358C209.768 204.103 209.768 202.604 210.907 202.35L214.738 201.493C215.144 201.403 215.462 201.109 215.559 200.732L216.485 197.185Z" fill="url(#paint2_linear_2902_1750)"/>
<path d="M55.7913 210.452C57.0865 210.26 58.1205 211.438 57.6525 212.573L54.4937 220.231C54.0257 221.366 52.4067 221.606 51.5795 220.663L45.9957 214.301C45.1684 213.359 45.7534 211.941 47.0486 211.749L55.7913 210.452Z" fill="url(#paint3_linear_2902_1750)"/>
<path d="M222.046 63.5045C221.722 62.3276 222.895 61.2671 224.158 61.5958L232.682 63.8137C233.944 64.1422 234.35 65.6133 233.411 66.4617L227.075 72.1879C226.136 73.0362 224.558 72.6255 224.233 71.4486L222.046 63.5045Z" fill="url(#paint4_linear_2902_1750)"/>
<path d="M193.663 118.489L175.181 121.816C169.922 122.762 166.488 127.476 167.51 132.345C168.532 137.214 173.623 140.393 178.881 139.447L197.365 136.12C202.623 135.174 206.057 130.46 205.034 125.591C204.013 120.723 198.921 117.542 193.663 118.489Z" fill="url(#paint5_linear_2902_1750)"/>
<path d="M200.927 127.27C201.02 125.054 199.155 123.187 196.76 123.101C194.366 123.014 192.35 124.741 192.257 126.958C192.163 129.174 194.029 131.041 196.423 131.128C198.818 131.214 200.834 129.487 200.927 127.27Z" fill="#EBEBEB"/>
<path d="M197.042 129.271C198.33 129.039 199.17 127.885 198.92 126.694C198.67 125.502 197.424 124.724 196.136 124.955C194.85 125.187 194.009 126.341 194.259 127.533C194.509 128.724 195.756 129.503 197.042 129.271Z" fill="#DBDBDB"/>
<path d="M164.358 91.4415L69.9862 108.427C64.6827 109.381 61.219 114.136 62.2499 119.047L75.0007 179.784C76.0316 184.695 81.1666 187.902 86.4701 186.947L180.842 169.962C186.146 169.008 189.609 164.253 188.579 159.342L175.828 98.6047C174.797 93.6944 169.663 90.487 164.358 91.4415Z" fill="url(#paint6_linear_2902_1750)"/>
<path d="M162.634 63.823L181.912 109.96C182.991 112.539 181.604 115.44 178.823 116.437L99.7965 144.746C97.016 145.744 93.8836 144.46 92.8042 141.881L73.527 95.743C72.5264 93.3427 73.8119 90.6456 76.405 89.7191L156.126 61.164C158.719 60.2375 161.631 61.4277 162.632 63.8288L162.634 63.823Z" fill="url(#paint7_linear_2902_1750)"/>
<path d="M166.347 108.059C167.335 110.432 166.064 113.099 163.502 114.014C160.941 114.93 158.059 113.752 157.071 111.38C156.082 109.009 157.354 106.341 159.916 105.425C162.477 104.511 165.359 105.688 166.347 108.059Z" fill="url(#paint8_linear_2902_1750)"/>
<path d="M172.055 106.01C173.044 108.382 171.772 111.05 169.211 111.966C166.649 112.881 163.768 111.703 162.779 109.332C161.791 106.959 163.063 104.292 165.624 103.377C168.186 102.461 171.067 103.639 172.055 106.01Z" fill="url(#paint9_linear_2902_1750)"/>
<path d="M97.3451 91.3242L84.3976 95.9618C83.3537 96.3359 82.8348 97.4229 83.2386 98.3894L86.2489 105.594C86.6527 106.561 87.8265 107.042 88.8704 106.667L101.817 102.029C102.862 101.656 103.381 100.569 102.977 99.6022L99.9666 92.3975C99.5626 91.4307 98.3886 90.9502 97.3451 91.3242Z" fill="url(#paint10_linear_2902_1750)"/>
<path d="M156.276 76.9599L148.706 79.6698C146.954 80.2927 144.987 79.4889 144.309 77.8679C143.637 76.2453 144.505 74.4244 146.256 73.7973L153.826 71.0875C155.577 70.4605 157.545 71.2684 158.222 72.8895C158.895 74.512 158.027 76.3329 156.276 76.9599Z" fill="white"/>
<path d="M90.4406 117.316L89.9116 117.935C89.9116 117.935 89.8678 117.979 89.8363 117.99C89.7732 118.013 89.7053 117.998 89.661 117.967C89.5769 117.901 89.5658 117.799 89.6359 117.731L90.3533 116.869C90.4143 116.804 90.5374 116.789 90.6073 116.845C90.6454 116.875 90.6654 116.911 90.6782 116.954L92.4037 121.079C92.4383 121.162 92.4002 121.258 92.3011 121.293C92.2109 121.325 92.1049 121.281 92.0704 121.198L90.4496 117.313L90.4406 117.316Z" fill="#F8F8F8"/>
<path d="M93.5373 120.534L95.0102 117.827C95.1837 117.497 95.1998 117.138 95.0667 116.816C94.9525 116.541 94.7258 116.306 94.4179 116.161C94.0709 115.998 93.6749 115.99 93.3388 116.114C93.0324 116.224 92.7749 116.425 92.6146 116.712L92.4634 116.996C92.4218 117.082 92.3074 117.118 92.2274 117.074C92.1339 117.035 92.0951 116.93 92.142 116.856L92.2915 116.568C92.4941 116.209 92.8278 115.942 93.2108 115.806C93.6342 115.655 94.1245 115.653 94.5765 115.871C94.9779 116.054 95.2582 116.356 95.4018 116.702C95.5661 117.099 95.5609 117.56 95.3368 117.979L94.0758 120.299L96.3734 119.482C96.4617 119.446 96.566 119.486 96.604 119.577C96.6386 119.66 96.5914 119.759 96.5013 119.791L93.7973 120.761L93.7703 120.771C93.7207 120.789 93.6659 120.794 93.6251 120.77C93.5327 120.721 93.4929 120.625 93.5345 120.539L93.5373 120.534Z" fill="#F8F8F8"/>
<path d="M98.9211 114.082L98.1658 115.724C98.4955 115.674 98.8438 115.703 99.1685 115.837C99.6107 116.019 99.9355 116.354 100.098 116.746C100.26 117.138 100.265 117.586 100.064 117.998C99.867 118.408 99.507 118.712 99.0854 118.867C98.6716 119.014 98.1874 119.018 97.7429 118.832C97.6512 118.797 97.6052 118.7 97.6496 118.607C97.685 118.518 97.7931 118.479 97.8929 118.52C98.2451 118.659 98.6217 118.659 98.9553 118.54C99.2889 118.422 99.5735 118.186 99.734 117.862C99.8915 117.532 99.8856 117.181 99.7575 116.872C99.6293 116.563 99.3759 116.299 99.0238 116.162C98.6726 116.013 98.293 116.019 97.9594 116.137C97.9056 116.157 97.845 116.149 97.7937 116.124L97.7847 116.128C97.6867 116.091 97.6434 115.987 97.6896 115.898L98.4153 114.319L96.5546 114.98C96.4572 115.02 96.3513 114.977 96.315 114.889C96.2769 114.797 96.3241 114.699 96.4187 114.665L98.6892 113.858C98.7861 113.819 98.8927 113.863 98.9289 113.95C98.9396 113.975 98.9406 114.004 98.9357 114.029C98.9357 114.053 98.9289 114.075 98.9201 114.092L98.9211 114.082Z" fill="#F8F8F8"/>
<path d="M104.366 115.909L101.739 116.851L101.717 116.86C101.68 116.872 101.636 116.879 101.599 116.863C101.501 116.841 101.45 116.739 101.487 116.654L102.943 112.413L102.948 112.401C102.982 112.308 103.073 112.266 103.174 112.297C103.209 112.309 103.236 112.333 103.259 112.353C103.264 112.366 103.277 112.371 103.279 112.375L103.288 112.396L104.574 115.476L104.899 115.36C104.998 115.325 105.104 115.369 105.139 115.452C105.173 115.535 105.126 115.633 105.031 115.667L104.707 115.783L105.027 116.554C105.061 116.638 105.014 116.736 104.919 116.769C104.829 116.802 104.724 116.757 104.689 116.674L104.369 115.902L104.366 115.909ZM104.239 115.6L103.138 112.971L101.945 116.425L104.241 115.608L104.239 115.6Z" fill="#F8F8F8"/>
<path d="M110.645 114.211C110.547 114.174 110.504 114.07 110.552 113.985C110.594 113.899 110.705 113.855 110.8 113.897C111.152 114.036 111.53 114.036 111.862 113.917C112.196 113.799 112.472 113.567 112.63 113.238C112.789 112.908 112.784 112.561 112.656 112.253C112.526 111.939 112.272 111.676 111.923 111.532C111.576 111.392 111.194 111.394 110.86 111.512C110.522 111.632 110.242 111.866 110.084 112.195C110.042 112.282 109.929 112.321 109.84 112.282C109.813 112.277 109.79 112.261 109.779 112.245L109.776 112.237C109.776 112.237 109.762 112.228 109.758 112.22C109.744 112.21 109.735 112.189 109.729 112.173C109.725 112.165 109.724 112.15 109.719 112.138L109.196 110.242C109.176 110.192 109.186 110.14 109.216 110.101C109.233 110.066 109.268 110.04 109.313 110.023L111.575 109.22C111.671 109.18 111.777 109.224 111.814 109.311C111.853 109.407 111.804 109.502 111.711 109.535L109.593 110.288L109.978 111.692C110.169 111.465 110.423 111.294 110.717 111.19C111.14 111.04 111.612 111.03 112.062 111.219C112.514 111.398 112.826 111.727 112.992 112.128C113.151 112.512 113.168 112.965 112.962 113.378C112.763 113.783 112.399 114.09 111.981 114.239C111.557 114.389 111.073 114.394 110.631 114.212L110.645 114.211Z" fill="#F8F8F8"/>
<path d="M113.985 109.49C114.093 108.825 114.483 108.222 115.277 107.906C115.364 107.866 115.47 107.909 115.514 107.99C115.551 108.081 115.504 108.179 115.416 108.215C114.746 108.483 114.454 108.96 114.34 109.536C114.282 109.858 114.306 110.214 114.371 110.559C114.537 110.146 114.881 109.793 115.359 109.624C116.256 109.305 117.247 109.714 117.586 110.532C117.926 111.353 117.489 112.269 116.599 112.59C115.73 112.899 114.76 112.517 114.398 111.732C114.345 111.64 114.305 111.544 114.262 111.44C114.019 110.842 113.878 110.14 113.99 109.488L113.985 109.49ZM114.726 111.586C114.739 111.619 114.759 111.641 114.774 111.665C114.782 111.686 114.787 111.698 114.783 111.714C115.106 112.255 115.825 112.506 116.461 112.281C117.168 112.03 117.516 111.298 117.249 110.656C116.983 110.013 116.193 109.691 115.486 109.943C114.792 110.189 114.444 110.92 114.711 111.563L114.721 111.588L114.726 111.586Z" fill="#F8F8F8"/>
<path d="M119.88 111.166L120.026 106.582L117.679 107.416C117.591 107.451 117.486 107.412 117.452 107.329C117.417 107.246 117.464 107.147 117.554 107.115L120.122 106.202C120.153 106.177 120.185 106.166 120.226 106.166C120.275 106.172 120.327 106.197 120.356 106.229C120.374 106.248 120.383 106.258 120.39 106.275C120.404 106.308 120.405 106.336 120.397 106.368L120.246 111.174C120.243 111.242 120.195 111.303 120.132 111.325C120.105 111.334 120.091 111.339 120.059 111.336C119.96 111.334 119.88 111.252 119.875 111.167L119.88 111.166Z" fill="#F8F8F8"/>
<path d="M122.884 105.172C123.438 104.975 124.07 105.229 124.284 105.742C124.413 106.055 124.359 106.385 124.184 106.648C124.85 106.66 125.473 107.042 125.725 107.647C126.06 108.455 125.632 109.355 124.759 109.669C123.889 109.979 122.914 109.583 122.575 108.776C122.323 108.171 122.507 107.503 122.983 107.08C122.669 106.995 122.394 106.782 122.265 106.469C122.051 105.956 122.318 105.378 122.882 105.177L122.884 105.172ZM124.634 109.355C125.328 109.109 125.658 108.398 125.396 107.763C125.135 107.134 124.371 106.811 123.676 107.059C122.991 107.302 122.654 108.02 122.915 108.65C123.179 109.288 123.949 109.599 124.634 109.355ZM123.539 106.739C123.909 106.598 124.098 106.205 123.955 105.859C123.811 105.513 123.391 105.346 123.017 105.479C122.643 105.612 122.461 105.997 122.605 106.343C122.749 106.689 123.168 106.866 123.543 106.737L123.539 106.739Z" fill="#F8F8F8"/>
<path d="M131.507 102.084C132.341 101.787 133.251 102.115 133.648 102.821C133.661 102.831 133.665 102.839 133.675 102.85C133.734 102.968 133.792 103.095 133.847 103.229C134.095 103.825 134.235 104.536 134.132 105.186C134.019 105.838 133.625 106.457 132.84 106.769L132.831 106.773C132.732 106.808 132.629 106.773 132.594 106.69C132.557 106.597 132.596 106.507 132.692 106.463C133.351 106.195 133.664 105.716 133.768 105.142C133.822 104.813 133.811 104.462 133.737 104.12C133.571 104.533 133.221 104.873 132.735 105.046C131.852 105.359 130.862 104.965 130.512 104.136C130.174 103.319 130.615 102.401 131.498 102.087L131.507 102.084ZM133.392 103.104C133.126 102.461 132.344 102.145 131.636 102.397C130.943 102.643 130.594 103.371 130.858 104.009C131.13 104.664 131.914 104.973 132.608 104.727C133.315 104.476 133.664 103.758 133.387 103.104L133.392 103.104Z" fill="#F8F8F8"/>
<path d="M135.289 103.313C135.039 102.709 134.972 102.1 135.095 101.573C135.226 101.068 135.536 100.642 136.027 100.467C136.518 100.292 137.06 100.416 137.521 100.706C137.987 101.02 138.396 101.506 138.651 102.109C138.902 102.714 138.955 103.327 138.832 103.844C138.703 104.354 138.395 104.784 137.904 104.959C137.413 105.133 136.871 105.01 136.406 104.711C135.94 104.408 135.539 103.915 135.287 103.31L135.289 103.313ZM135.627 103.194C135.856 103.744 136.223 104.183 136.62 104.439C137.013 104.692 137.428 104.77 137.775 104.646C138.121 104.523 138.363 104.207 138.478 103.774C138.582 103.34 138.543 102.784 138.315 102.234C138.087 101.683 137.709 101.247 137.318 100.989C136.915 100.726 136.51 100.659 136.163 100.783C135.815 100.906 135.56 101.212 135.459 101.655C135.356 102.089 135.404 102.641 135.633 103.196L135.627 103.194Z" fill="#F8F8F8"/>
<path d="M140.145 99.5152L139.616 100.135C139.616 100.135 139.572 100.178 139.541 100.19C139.477 100.213 139.41 100.198 139.365 100.166C139.281 100.1 139.27 99.9989 139.34 99.9309L140.057 99.0677C140.119 99.0034 140.241 98.988 140.312 99.0451C140.35 99.0741 140.37 99.1103 140.382 99.1538L142.108 103.278C142.142 103.362 142.104 103.456 142.005 103.492C141.915 103.524 141.81 103.48 141.774 103.397L140.154 99.5125L140.145 99.5152Z" fill="#F8F8F8"/>
<path d="M143.24 102.729L144.712 100.023C144.887 99.6935 144.902 99.333 144.769 99.0124C144.655 98.737 144.429 98.5015 144.121 98.3575C143.773 98.1935 143.377 98.1863 143.042 98.3104C142.735 98.4191 142.479 98.6247 142.317 98.9073L142.166 99.1908C142.124 99.2778 142.009 99.3131 141.93 99.2696C141.836 99.2316 141.797 99.1256 141.844 99.0513L141.994 98.7642C142.196 98.4046 142.53 98.1374 142.911 97.997C143.335 97.8466 143.825 97.8448 144.277 98.0622C144.678 98.2451 144.959 98.5477 145.103 98.8937C145.267 99.2895 145.261 99.7515 145.037 100.171L143.776 102.491L146.074 101.674C146.162 101.637 146.269 101.681 146.305 101.769C146.339 101.852 146.292 101.95 146.202 101.982L143.498 102.953L143.471 102.963C143.421 102.98 143.366 102.985 143.326 102.962C143.233 102.913 143.193 102.817 143.235 102.731L143.24 102.729Z" fill="#F8F8F8"/>
<path d="M152.778 94.7908L152.022 96.4339C152.352 96.3832 152.701 96.4122 153.025 96.5463C153.468 96.7283 153.792 97.0626 153.955 97.4548C154.117 97.847 154.122 98.2953 153.921 98.7066C153.723 99.1169 153.364 99.4213 152.946 99.5743C152.532 99.722 152.043 99.7283 151.599 99.5417C151.507 99.5073 151.461 99.4086 151.506 99.3162C151.543 99.231 151.649 99.1885 151.749 99.2292C152.101 99.3678 152.479 99.3678 152.812 99.2492C153.145 99.1305 153.431 98.895 153.59 98.5707C153.748 98.2419 153.742 97.8895 153.614 97.5807C153.486 97.2727 153.232 97.0082 152.88 96.8705C152.53 96.722 152.149 96.7283 151.815 96.847C151.762 96.866 151.702 96.8588 151.65 96.8334L151.641 96.837C151.543 96.7999 151.499 96.6957 151.546 96.6069L152.271 95.029L150.411 95.6903C150.314 95.7292 150.208 95.6857 150.171 95.5979C150.134 95.5064 150.181 95.4077 150.275 95.3742L152.545 94.5671C152.643 94.5281 152.749 94.5716 152.785 94.6595C152.796 94.6848 152.797 94.7129 152.792 94.7383C152.792 94.7627 152.785 94.7836 152.777 94.8008L152.778 94.7908Z" fill="#F8F8F8"/>
<path d="M158.223 96.6168L155.593 97.5525L155.585 97.5598L155.572 97.5643C155.536 97.577 155.494 97.5878 155.455 97.5679C155.357 97.5453 155.305 97.4438 155.342 97.3587L156.799 93.1177L156.804 93.106C156.838 93.0127 156.929 92.971 157.03 93.0027C157.065 93.0136 157.091 93.038 157.115 93.0579C157.12 93.0706 157.128 93.077 157.134 93.0797L157.143 93.1005L158.43 96.1802L158.754 96.0652C158.853 96.0299 158.96 96.0733 158.994 96.1567C159.028 96.24 158.981 96.3387 158.886 96.3723L158.563 96.4873L158.882 97.259C158.917 97.3424 158.87 97.4402 158.775 97.4737C158.685 97.5063 158.579 97.4628 158.544 97.3786L158.224 96.6069L158.223 96.6168ZM158.095 96.3089L156.995 93.6793L155.801 97.1331L158.099 96.317L158.095 96.3089Z" fill="#F8F8F8"/>
<path d="M160.347 96.4066C160.25 96.3694 160.206 96.2653 160.254 96.181C160.296 96.095 160.409 96.0542 160.502 96.0932C160.854 96.2308 161.231 96.2308 161.564 96.1131C161.898 95.9944 162.174 95.7625 162.332 95.4328C162.491 95.104 162.486 94.7562 162.358 94.4473C162.228 94.1348 161.974 93.8712 161.625 93.7272C161.276 93.5832 160.895 93.5886 160.563 93.7073C160.224 93.8278 159.944 94.0615 159.786 94.3903C159.744 94.4772 159.633 94.5207 159.542 94.4763C159.515 94.4718 159.492 94.4564 159.482 94.441L159.478 94.4328C159.478 94.4328 159.464 94.4238 159.46 94.4147C159.445 94.4057 159.438 94.3848 159.431 94.3685C159.427 94.3595 159.426 94.3459 159.421 94.3332L158.899 92.4374C158.878 92.3866 158.888 92.3359 158.918 92.2961C158.935 92.2616 158.97 92.2345 159.015 92.2191L161.276 91.415C161.374 91.3756 161.479 91.4192 161.515 91.5068C161.556 91.6031 161.507 91.6964 161.412 91.7299L159.295 92.4826L159.68 93.8866C159.873 93.6656 160.125 93.489 160.419 93.3857C160.841 93.2345 161.313 93.2254 161.764 93.4147C162.216 93.5941 162.528 93.9229 162.694 94.3232C162.853 94.7073 162.87 95.1602 162.664 95.5732C162.465 95.979 162.101 96.2852 161.683 96.4346C161.259 96.585 160.775 96.5895 160.333 96.4075L160.347 96.4066Z" fill="#F8F8F8"/>
<path d="M163.688 91.6854C163.795 91.0202 164.184 90.4129 164.98 90.1012C165.067 90.0609 165.173 90.1045 165.216 90.1848C165.254 90.2765 165.207 90.3746 165.119 90.4109C164.451 90.6818 164.155 91.1552 164.043 91.7316C163.985 92.0532 164.009 92.4082 164.074 92.7543C164.239 92.3412 164.584 91.9889 165.061 91.8195C165.958 91.5005 166.949 91.9091 167.289 92.7262C167.629 93.5486 167.192 94.4644 166.302 94.786C165.432 95.0948 164.463 94.7126 164.101 93.9264C164.047 93.8358 164.008 93.7398 163.965 93.6356C163.721 93.0369 163.58 92.3358 163.693 91.6836L163.688 91.6854ZM164.428 93.7814C164.442 93.8149 164.462 93.8367 164.476 93.8602C164.485 93.8811 164.49 93.8937 164.486 93.9091C164.809 94.4499 165.528 94.7017 166.163 94.4762C166.87 94.2244 167.218 93.4934 166.952 92.8512C166.686 92.2081 165.896 91.8865 165.188 92.1374C164.495 92.3847 164.147 93.1157 164.413 93.7579L164.423 93.7832L164.428 93.7814Z" fill="#F8F8F8"/>
<path d="M138.279 113.684L95.9619 128.842L96.7663 130.767L139.083 115.608L138.279 113.684Z" fill="url(#paint11_linear_2902_1750)"/>
<path d="M127.709 122.389L97.75 133.121L98.554 135.046L128.513 124.314L127.709 122.389Z" fill="url(#paint12_linear_2902_1750)"/>
<path d="M139.134 76.3511L120.111 83.1654C119.536 83.3711 119.251 83.9687 119.473 84.5003C119.695 85.0319 120.34 85.2963 120.915 85.0906L139.938 78.2762C140.512 78.0705 140.797 77.4729 140.575 76.9413C140.353 76.4097 139.707 76.1454 139.134 76.3511Z" fill="#3B3B3B"/>
<path d="M173.994 125.533L74.8447 143.379L82.5605 180.133L181.711 162.288L173.994 125.533Z" fill="url(#paint13_linear_2902_1750)"/>
<path opacity="0.2" d="M173.994 125.533L74.8447 143.379L82.5605 180.133L181.711 162.288L173.994 125.533Z" fill="black"/>
<path d="M183.153 184.285L85.4676 188.862C80.6037 189.09 76.2996 185.971 75.3703 181.544L61.3084 114.56C60.9766 112.98 62.7307 111.724 64.2996 112.418C66.1205 113.224 68.1437 113.565 70.1603 113.407L157.914 106.457C162.896 106.062 167.397 109.209 168.351 113.753L183.157 184.28C183.157 184.282 183.155 184.284 183.153 184.285Z" fill="url(#paint14_linear_2902_1750)"/>
<path d="M162.404 151.296C164.678 150.887 166.113 148.611 165.609 146.214C165.106 143.816 162.855 142.204 160.582 142.612C158.308 143.022 156.873 145.297 157.377 147.695C157.881 150.093 160.132 151.705 162.404 151.296Z" fill="#EBEBEB"/>
<path d="M163.407 146.611C163.641 147.725 162.973 148.783 161.917 148.972C160.86 149.162 159.814 148.413 159.58 147.299C159.346 146.186 160.013 145.128 161.07 144.938C162.126 144.748 163.173 145.497 163.407 146.611Z" fill="#DBDBDB"/>
</g>
<defs>
<filter id="filter0_f_2902_1750" x="-1.17383" y="-4.08984" width="272.348" height="260.174" filterUnits="userSpaceOnUse" color-interpolation-filters="sRGB">
<feFlood flood-opacity="0" result="BackgroundImageFix"/>
<feBlend mode="normal" in="SourceGraphic" in2="BackgroundImageFix" result="shape"/>
<feGaussianBlur stdDeviation="27" result="effect1_foregroundBlur_2902_1750"/>
</filter>
<linearGradient id="paint0_linear_2902_1750" x1="53.8859" y1="21.832" x2="224.431" y2="60.1734" gradientUnits="userSpaceOnUse">
<stop stop-color="#A259FF"/>
<stop offset="1" stop-color="#3B3B3B"/>
</linearGradient>
<linearGradient id="paint1_linear_2902_1750" x1="79.4349" y1="49.9102" x2="237.418" y2="82.8158" gradientUnits="userSpaceOnUse">
<stop stop-color="#A259FF" stop-opacity="0"/>
<stop offset="1" stop-color="#FF6250"/>
</linearGradient>
<linearGradient id="paint2_linear_2902_1750" x1="220.782" y1="199.488" x2="234.332" y2="210.981" gradientUnits="userSpaceOnUse">
<stop stop-color="#A259FF"/>
<stop offset="1" stop-color="#377DF7"/>
</linearGradient>
<linearGradient id="paint3_linear_2902_1750" x1="57.127" y1="214.336" x2="56.7142" y2="227.614" gradientUnits="userSpaceOnUse">
<stop stop-color="#A259FF"/>
<stop offset="1" stop-color="#377DF7"/>
</linearGradient>
<linearGradient id="paint4_linear_2902_1750" x1="226.103" y1="61.9203" x2="240.416" y2="61.0337" gradientUnits="userSpaceOnUse">
<stop stop-color="#A259FF"/>
<stop offset="1" stop-color="#377DF7"/>
</linearGradient>
<linearGradient id="paint5_linear_2902_1750" x1="171.734" y1="122.436" x2="206.881" y2="128.999" gradientUnits="userSpaceOnUse">
<stop stop-color="#A259FF"/>
<stop offset="1" stop-color="#3B3B3B"/>
</linearGradient>
<linearGradient id="paint6_linear_2902_1750" x1="148.498" y1="204.708" x2="114.799" y2="133.238" gradientUnits="userSpaceOnUse">
<stop stop-color="#A259FF"/>
<stop offset="1" stop-color="#3B3B3B"/>
</linearGradient>
<linearGradient id="paint7_linear_2902_1750" x1="86.103" y1="86.052" x2="177.869" y2="77.4917" gradientUnits="userSpaceOnUse">
<stop stop-color="#A259FF"/>
<stop offset="1" stop-color="#FF6250"/>
</linearGradient>
<linearGradient id="paint8_linear_2902_1750" x1="156.787" y1="106.538" x2="166.382" y2="104.695" gradientUnits="userSpaceOnUse">
<stop stop-color="#A259FF"/>
<stop offset="1" stop-color="#FF6250"/>
</linearGradient>
<linearGradient id="paint9_linear_2902_1750" x1="162.497" y1="104.488" x2="172.09" y2="102.646" gradientUnits="userSpaceOnUse">
<stop stop-color="#A259FF"/>
<stop offset="1" stop-color="#3B3B3B"/>
</linearGradient>
<linearGradient id="paint10_linear_2902_1750" x1="85.2157" y1="95.6693" x2="102.435" y2="93.8591" gradientUnits="userSpaceOnUse">
<stop stop-color="#A259FF"/>
<stop offset="1" stop-color="#3B3B3B"/>
</linearGradient>
<linearGradient id="paint11_linear_2902_1750" x1="102.813" y1="126.387" x2="108.68" y2="135.29" gradientUnits="userSpaceOnUse">
<stop stop-color="#A259FF"/>
<stop offset="1" stop-color="#FF6250"/>
</linearGradient>
<linearGradient id="paint12_linear_2902_1750" x1="102.6" y1="131.383" x2="109.129" y2="139.512" gradientUnits="userSpaceOnUse">
<stop stop-color="#A259FF"/>
<stop offset="1" stop-color="#FF6250"/>
</linearGradient>
<linearGradient id="paint13_linear_2902_1750" x1="90.8975" y1="140.49" x2="178.231" y2="165.271" gradientUnits="userSpaceOnUse">
<stop stop-color="#A259FF"/>
<stop offset="1" stop-color="#3B3B3B"/>
</linearGradient>
<linearGradient id="paint14_linear_2902_1750" x1="156.811" y1="161.974" x2="8.51461" y2="85.1087" gradientUnits="userSpaceOnUse">
<stop stop-color="#A259FF"/>
<stop offset="0.666667" stop-color="white"/>
</linearGradient>
<clipPath id="clip0_2902_1750">
<rect width="270" height="250" fill="white" transform="translate(0 0.998047)"/>
</clipPath>
</defs>
</svg>
