<svg width="33" height="33" viewBox="0 0 33 33" fill="none" xmlns="http://www.w3.org/2000/svg">
<path fill-rule="evenodd" clip-rule="evenodd" d="M6.29297 13.4492C6.84525 13.4492 7.29297 13.8969 7.29297 14.4492V26.9992H25.293V14.4492C25.293 13.8969 25.7407 13.4492 26.293 13.4492C26.8453 13.4492 27.293 13.8969 27.293 14.4492V26.9992C27.293 27.5296 27.0823 28.0384 26.7072 28.4134C26.3321 28.7885 25.8234 28.9992 25.293 28.9992H7.29297C6.76254 28.9992 6.25383 28.7885 5.87876 28.4134C5.50368 28.0384 5.29297 27.5297 5.29297 26.9992V14.4492C5.29297 13.8969 5.74068 13.4492 6.29297 13.4492Z" fill="#A259FF"/>
<path fill-rule="evenodd" clip-rule="evenodd" d="M3.29297 5.99805C3.29297 5.44576 3.74068 4.99805 4.29297 4.99805H28.293C28.8453 4.99805 29.293 5.44576 29.293 5.99805C29.293 6.55033 28.8453 6.99805 28.293 6.99805H4.29297C3.74068 6.99805 3.29297 6.55033 3.29297 5.99805Z" fill="#A259FF"/>
<path fill-rule="evenodd" clip-rule="evenodd" d="M4.29297 7.99805C4.84525 7.99805 5.29297 8.44576 5.29297 8.99805V10.998C5.29297 11.7937 5.60904 12.5568 6.17165 13.1194C6.73426 13.682 7.49732 13.998 8.29297 13.998C9.08862 13.998 9.85168 13.682 10.4143 13.1194C10.9769 12.5568 11.293 11.7937 11.293 10.998V8.99805C11.293 8.44576 11.7407 7.99805 12.293 7.99805C12.8453 7.99805 13.293 8.44576 13.293 8.99805V10.998C13.293 12.3241 12.7662 13.5959 11.8285 14.5336C10.8908 15.4713 9.61905 15.998 8.29297 15.998C6.96689 15.998 5.69512 15.4713 4.75743 14.5336C3.81975 13.5959 3.29297 12.3241 3.29297 10.998V8.99805C3.29297 8.44576 3.74068 7.99805 4.29297 7.99805Z" fill="#A259FF"/>
<path fill-rule="evenodd" clip-rule="evenodd" d="M12.293 7.99805C12.8453 7.99805 13.293 8.44576 13.293 8.99805V10.998C13.293 11.7937 13.609 12.5568 14.1716 13.1194C14.7343 13.682 15.4973 13.998 16.293 13.998C17.0886 13.998 17.8517 13.682 18.4143 13.1194C18.9769 12.5568 19.293 11.7937 19.293 10.998V8.99805C19.293 8.44576 19.7407 7.99805 20.293 7.99805C20.8453 7.99805 21.293 8.44576 21.293 8.99805V10.998C21.293 12.3241 20.7662 13.5959 19.8285 14.5336C18.8908 15.4713 17.6191 15.998 16.293 15.998C14.9669 15.998 13.6951 15.4713 12.7574 14.5336C11.8198 13.5959 11.293 12.3241 11.293 10.998V8.99805C11.293 8.44576 11.7407 7.99805 12.293 7.99805Z" fill="#A259FF"/>
<path fill-rule="evenodd" clip-rule="evenodd" d="M20.293 7.99805C20.8453 7.99805 21.293 8.44576 21.293 8.99805V10.998C21.293 11.7937 21.609 12.5568 22.1716 13.1194C22.7343 13.682 23.4973 13.998 24.293 13.998C25.0886 13.998 25.8517 13.682 26.4143 13.1194C26.9769 12.5568 27.293 11.7937 27.293 10.998V8.99805C27.293 8.44576 27.7407 7.99805 28.293 7.99805C28.8453 7.99805 29.293 8.44576 29.293 8.99805V10.998C29.293 12.3241 28.7662 13.5959 27.8285 14.5336C26.8908 15.4713 25.6191 15.998 24.293 15.998C22.9669 15.998 21.6951 15.4713 20.7574 14.5336C19.8198 13.5959 19.293 12.3241 19.293 10.998V8.99805C19.293 8.44576 19.7407 7.99805 20.293 7.99805Z" fill="#A259FF"/>
</svg>
