<svg width="240" height="101" viewBox="0 0 240 101" fill="none" xmlns="http://www.w3.org/2000/svg">
<path d="M18.75 85.3731H86.25C95.8918 85.3731 105.317 84.1817 113.334 81.9498C121.351 79.7178 127.599 76.5454 131.289 72.8338C134.979 69.1222 135.944 65.038 134.063 61.0978C132.182 57.1575 127.539 53.5382 120.721 50.6974C113.904 47.8567 105.217 45.9221 95.7607 45.1384C86.3041 44.3546 76.5021 44.7568 67.5942 46.2943C58.6863 47.8317 51.0726 50.4352 45.7159 53.7755C40.3591 57.1159 37.5 61.0431 37.5 65.0606C37.5 79.1231 18.75 85.3731 18.75 85.3731Z" stroke="white" stroke-width="3" stroke-linecap="round" stroke-linejoin="round"/>
<path d="M105.373 46.3887C123.373 36.2715 169.123 13.1074 210.936 13.1074C210.936 30.5293 155.342 49.5918 131.061 57.0918" stroke="white" stroke-width="3" stroke-linecap="round" stroke-linejoin="round"/>
<path d="M124.688 36.3887C137.39 39.3758 147.893 43.752 155.062 49.0449" stroke="white" stroke-width="3" stroke-linecap="round" stroke-linejoin="round"/>
</svg>
