<svg width="20" height="21" viewBox="0 0 20 21" fill="none" xmlns="http://www.w3.org/2000/svg">
<path fill-rule="evenodd" clip-rule="evenodd" d="M6.17053 12.9494C6.28055 13.2766 6.10451 13.631 5.77734 13.741C4.71792 14.0973 4.15489 14.9866 3.85373 15.891C3.73414 16.2501 3.66189 16.5958 3.61848 16.8817C3.90434 16.8383 4.25006 16.766 4.60917 16.6464C5.51355 16.3453 6.4029 15.7823 6.75916 14.7228C6.86918 14.3957 7.2236 14.2196 7.55078 14.3296C7.87795 14.4397 8.05399 14.7941 7.94396 15.1213C7.4096 16.7103 6.08801 17.4715 5.00411 17.8324C4.45655 18.0148 3.94395 18.1048 3.5698 18.1497C3.38182 18.1722 3.22641 18.1836 3.116 18.1894C3.06074 18.1924 3.01658 18.1939 2.98505 18.1946C2.96928 18.195 2.95666 18.1952 2.94737 18.1954L2.93596 18.1955L2.93217 18.1955L2.93077 18.1955L2.93019 18.1955C2.92993 18.1955 2.92969 18.1955 2.92969 17.5705C2.30469 17.5705 2.30469 17.5702 2.30469 17.57L2.30469 17.5694L2.30469 17.568L2.30471 17.5642L2.30481 17.5528C2.30493 17.5435 2.30514 17.5309 2.30553 17.5151C2.30631 17.4836 2.30782 17.4394 2.31072 17.3842C2.31653 17.2738 2.32797 17.1184 2.35052 16.9304C2.3954 16.5562 2.48542 16.0436 2.66776 15.4961C3.0287 14.4122 3.78989 13.0906 5.37891 12.5562C5.70608 12.4462 6.0605 12.6222 6.17053 12.9494ZM2.92969 17.5705H2.30469C2.30469 17.9157 2.58451 18.1955 2.92969 18.1955V17.5705Z" fill="white"/>
<path fill-rule="evenodd" clip-rule="evenodd" d="M16.5462 3.95406C15.8208 3.84943 14.0351 3.81002 12.2076 5.63753L7.34482 10.5003L10 13.1555L14.8627 8.29271C16.6903 6.4652 16.6508 4.67951 16.5462 3.95406ZM16.7275 2.71727C15.7298 2.57282 13.5058 2.57157 11.3237 4.75365L6.019 10.0583C5.90179 10.1755 5.83594 10.3345 5.83594 10.5003C5.83594 10.666 5.90179 10.825 6.019 10.9422L9.55806 14.4813C9.80214 14.7254 10.1979 14.7254 10.4419 14.4813L15.7466 9.17659C17.9287 6.99452 17.9275 4.77052 17.783 3.77282C17.7465 3.5058 17.6235 3.25803 17.4329 3.0674C17.2422 2.87678 16.9945 2.75382 16.7275 2.71727Z" fill="white"/>
<path fill-rule="evenodd" clip-rule="evenodd" d="M14.422 8.99219C14.7672 8.99219 15.047 9.27201 15.047 9.61719V14.6641L15.0469 14.673C15.0423 15.0013 14.9086 15.3145 14.675 15.545L12.1527 18.075C11.9926 18.2349 11.7921 18.3484 11.5725 18.4033C11.353 18.4582 11.1227 18.4524 10.9061 18.3867C10.6896 18.3209 10.495 18.1976 10.343 18.0299C10.1912 17.8623 10.0877 17.6567 10.0435 17.4349C10.0434 17.4347 10.0435 17.4351 10.0435 17.4349L9.38731 14.1619C9.31946 13.8235 9.53882 13.4941 9.87727 13.4263C10.2157 13.3584 10.5451 13.5778 10.6129 13.9162L11.2694 17.1906L13.797 14.6552V9.61719C13.797 9.27201 14.0768 8.99219 14.422 8.99219Z" fill="white"/>
<path fill-rule="evenodd" clip-rule="evenodd" d="M5.82722 5.45319L5.83612 5.45312H10.883C11.2282 5.45312 11.508 5.73295 11.508 6.07812C11.508 6.4233 11.2282 6.70312 10.883 6.70312H5.84496L5.83991 6.70828L5.83988 6.70825L3.30957 9.23075L3.31054 9.23094L6.58398 9.88719C6.92242 9.95504 7.14178 10.2844 7.07393 10.6229C7.00608 10.9613 6.67671 11.1807 6.33827 11.1128L3.0658 10.4568C3.06562 10.4567 3.06543 10.4567 3.06524 10.4566C2.84349 10.4124 2.63788 10.3089 2.47031 10.1571C2.3026 10.0052 2.17928 9.81054 2.11351 9.594C2.04775 9.37746 2.042 9.14712 2.09689 8.92757C2.15178 8.70802 2.26525 8.50749 2.42518 8.34738L2.42612 8.34644L2.42612 8.34644L4.95522 5.82514C5.18573 5.59151 5.49894 5.45786 5.82722 5.45319Z" fill="white"/>
</svg>
