<svg width="240" height="101" viewBox="0 0 240 101" fill="none" xmlns="http://www.w3.org/2000/svg">
<path d="M34.4059 68.5764L57.0934 15.0217C57.2519 14.6175 57.602 14.2305 58.1232 13.8833C58.6444 13.5361 59.3262 13.2355 60.129 12.9992C60.9318 12.7629 61.8395 12.5955 62.7991 12.5068C63.7587 12.4181 64.7511 12.4099 65.7184 12.4827L117.468 16.2717C119.424 16.4241 121.157 16.89 122.297 17.5693C123.436 18.2486 123.891 19.0871 123.562 19.9046L100.781 73.7717C99.2208 77.3989 94.3151 80.6275 87.1138 82.7666C79.9125 84.9056 70.9878 85.7852 62.2496 85.2171C43.5934 83.9671 31.1246 76.3499 34.4059 68.5764Z" stroke="white" stroke-width="3" stroke-linecap="round" stroke-linejoin="round"/>
<path d="M110.903 49.7482L179.247 39.3966C180.176 39.2536 181.164 39.1888 182.154 39.2058C183.143 39.2228 184.115 39.3213 185.013 39.4956C185.911 39.6699 186.717 39.9166 187.385 40.2215C188.052 40.5263 188.568 40.8832 188.903 41.2716L206.903 61.8185C207.567 62.5956 207.467 63.4506 206.624 64.197C205.781 64.9434 204.264 65.5206 202.403 65.8028L79.0283 84.5138" stroke="white" stroke-width="3" stroke-linecap="round" stroke-linejoin="round"/>
<path d="M206.25 64.4746V82.248C206.25 83.0768 205.46 83.8717 204.053 84.4578C202.647 85.0438 200.739 85.373 198.75 85.373H67.5" stroke="white" stroke-width="3" stroke-linecap="round" stroke-linejoin="round"/>
<path d="M67.5 75.998C73.7132 75.998 78.75 73.8994 78.75 71.3105C78.75 68.7217 73.7132 66.623 67.5 66.623C61.2868 66.623 56.25 68.7217 56.25 71.3105C56.25 73.8994 61.2868 75.998 67.5 75.998Z" fill="white"/>
</svg>
