<svg width="33" height="33" viewBox="0 0 33 33" fill="none" xmlns="http://www.w3.org/2000/svg">
<path d="M16.2927 11.9985C16.2927 9.2485 18.6052 6.961 21.3552 6.9985C22.3182 7.00962 23.2576 7.29865 24.0603 7.83085C24.863 8.36304 25.495 9.11576 25.8802 9.9985H30.2927L26.2552 14.036C25.9946 18.0917 24.1993 21.896 21.2342 24.6753C18.269 27.4547 14.3567 29.0005 10.2927 28.9985C6.29267 28.9985 5.29267 27.4985 5.29267 27.4985C5.29267 27.4985 9.29267 25.9985 11.2927 22.9985C11.2927 22.9985 3.29267 18.9985 5.29267 7.9985C5.29267 7.9985 10.2927 12.9985 16.2927 13.9985V11.9985Z" stroke="#858584" stroke-width="2" stroke-linecap="round" stroke-linejoin="round"/>
</svg>
