<svg width="21" height="20" viewBox="0 0 21 20" fill="none" xmlns="http://www.w3.org/2000/svg">
<path fill-rule="evenodd" clip-rule="evenodd" d="M4.875 4.375C4.70924 4.375 4.55027 4.44085 4.43306 4.55806C4.31585 4.67527 4.25 4.83424 4.25 5C4.25 5.16576 4.31585 5.32473 4.43306 5.44194C4.55027 5.55915 4.70924 5.625 4.875 5.625H17.375C17.7065 5.625 18.0245 5.7567 18.2589 5.99112C18.4933 6.22554 18.625 6.54348 18.625 6.875V15.625C18.625 15.9565 18.4933 16.2745 18.2589 16.5089C18.0245 16.7433 17.7065 16.875 17.375 16.875H4.875C4.37772 16.875 3.90081 16.6775 3.54917 16.3258C3.19754 15.9742 3 15.4973 3 15V5C3 4.50272 3.19754 4.02581 3.54917 3.67417C3.90081 3.32254 4.37772 3.125 4.875 3.125H15.5C15.8452 3.125 16.125 3.40482 16.125 3.75C16.125 4.09518 15.8452 4.375 15.5 4.375H4.875ZM4.25 6.76777V15C4.25 15.1658 4.31585 15.3247 4.43306 15.4419C4.55027 15.5592 4.70924 15.625 4.875 15.625H17.375V6.875H4.875C4.66004 6.875 4.44888 6.83809 4.25 6.76777Z" fill="white"/>
<path d="M14.5625 12.1875C15.0803 12.1875 15.5 11.7678 15.5 11.25C15.5 10.7322 15.0803 10.3125 14.5625 10.3125C14.0447 10.3125 13.625 10.7322 13.625 11.25C13.625 11.7678 14.0447 12.1875 14.5625 12.1875Z" fill="white"/>
</svg>
